<svg id="Component_123_6" data-name="Component 123 – 6" xmlns="http://www.w3.org/2000/svg" width="422.5" height="441.593" viewBox="0 0 422.5 441.593">
  <g id="Group_4499" data-name="Group 4499" transform="translate(35.472 55.342)">
    <path id="Path_3069" data-name="Path 3069" d="M5.711,0l5.723,5.723L5.723,11.434,0,5.711Z" transform="translate(82.413 8.085) rotate(-45)" fill="#fff"/>
    <path id="Path_3069-2" data-name="Path 3069" d="M5.711,0l5.723,5.723L5.723,11.434,0,5.711Z" transform="translate(123.619 8.085) rotate(-45)" fill="#fff"/>
    <path id="Path_3069-3" data-name="Path 3069" d="M5.711,0l5.723,5.723L5.723,11.434,0,5.711Z" transform="translate(164.826 8.085) rotate(-45)" fill="#fff"/>
    <path id="Path_3069-4" data-name="Path 3069" d="M5.711,0l5.723,5.723L5.723,11.434,0,5.711Z" transform="translate(206.032 8.085) rotate(-45)" fill="#fff"/>
    <path id="Path_3069-5" data-name="Path 3069" d="M5.711,0l5.723,5.723L5.723,11.434,0,5.711Z" transform="translate(247.238 8.085) rotate(-45)" fill="#fff"/>
    <path id="Path_3069-6" data-name="Path 3069" d="M5.711,0l5.723,5.723L5.723,11.434,0,5.711Z" transform="translate(288.445 8.085) rotate(-45)" fill="#fff"/>
    <path id="Path_3069-7" data-name="Path 3069" d="M5.711,0l5.723,5.723L5.723,11.434,0,5.711Z" transform="translate(329.651 8.085) rotate(-45)" fill="#fff"/>
    <path id="Path_3069-8" data-name="Path 3069" d="M5.711,0l5.723,5.723L5.723,11.434,0,5.711Z" transform="translate(370.858 8.085) rotate(-45)" fill="#fff"/>
    <path id="Path_3069-9" data-name="Path 3069" d="M5.711,0l5.723,5.723L5.723,11.434,0,5.711Z" transform="translate(82.413 49.205) rotate(-45)" fill="#fff"/>
    <path id="Path_3069-10" data-name="Path 3069" d="M5.711,0l5.723,5.723L5.723,11.434,0,5.711Z" transform="translate(123.619 49.205) rotate(-45)" fill="#fff"/>
    <path id="Path_3069-11" data-name="Path 3069" d="M5.711,0l5.723,5.723L5.723,11.434,0,5.711Z" transform="translate(164.826 49.205) rotate(-45)" fill="#fff"/>
    <path id="Path_3069-12" data-name="Path 3069" d="M5.711,0l5.723,5.723L5.723,11.434,0,5.711Z" transform="translate(206.032 49.205) rotate(-45)" fill="#fff"/>
    <path id="Path_3069-13" data-name="Path 3069" d="M5.711,0l5.723,5.723L5.723,11.434,0,5.711Z" transform="translate(247.238 49.205) rotate(-45)" fill="#fff"/>
    <path id="Path_3069-14" data-name="Path 3069" d="M5.711,0l5.723,5.723L5.723,11.434,0,5.711Z" transform="translate(288.445 49.205) rotate(-45)" fill="#fff"/>
    <path id="Path_3069-15" data-name="Path 3069" d="M5.711,0l5.723,5.723L5.723,11.434,0,5.711Z" transform="translate(329.651 49.205) rotate(-45)" fill="#fff"/>
    <path id="Path_3069-16" data-name="Path 3069" d="M5.711,0l5.723,5.723L5.723,11.434,0,5.711Z" transform="translate(370.858 49.205) rotate(-45)" fill="#fff"/>
    <path id="Path_3069-17" data-name="Path 3069" d="M5.711,0l5.723,5.723L5.723,11.434,0,5.711Z" transform="translate(0 90.325) rotate(-45)" fill="#fff"/>
    <path id="Path_3069-18" data-name="Path 3069" d="M5.711,0l5.723,5.723L5.723,11.434,0,5.711Z" transform="translate(41.206 90.325) rotate(-45)" fill="#fff"/>
    <path id="Path_3069-19" data-name="Path 3069" d="M5.711,0l5.723,5.723L5.723,11.434,0,5.711Z" transform="translate(82.413 90.325) rotate(-45)" fill="#fff"/>
    <path id="Path_3069-20" data-name="Path 3069" d="M5.711,0l5.723,5.723L5.723,11.434,0,5.711Z" transform="translate(123.619 90.325) rotate(-45)" fill="#fff"/>
    <path id="Path_3069-21" data-name="Path 3069" d="M5.711,0l5.723,5.723L5.723,11.434,0,5.711Z" transform="translate(164.826 90.325) rotate(-45)" fill="#fff"/>
    <path id="Path_3069-22" data-name="Path 3069" d="M5.711,0l5.723,5.723L5.723,11.434,0,5.711Z" transform="translate(206.032 90.325) rotate(-45)" fill="#fff"/>
    <path id="Path_3069-23" data-name="Path 3069" d="M5.711,0l5.723,5.723L5.723,11.434,0,5.711Z" transform="translate(247.238 90.325) rotate(-45)" fill="#fff"/>
    <path id="Path_3069-24" data-name="Path 3069" d="M5.711,0l5.723,5.723L5.723,11.434,0,5.711Z" transform="translate(288.445 90.325) rotate(-45)" fill="#fff"/>
    <path id="Path_3069-25" data-name="Path 3069" d="M5.711,0l5.723,5.723L5.723,11.434,0,5.711Z" transform="translate(329.651 90.325) rotate(-45)" fill="#fff"/>
    <path id="Path_3069-26" data-name="Path 3069" d="M5.711,0l5.723,5.723L5.723,11.434,0,5.711Z" transform="translate(370.858 90.325) rotate(-45)" fill="#fff"/>
    <path id="Path_3069-27" data-name="Path 3069" d="M5.711,0l5.723,5.723L5.723,11.434,0,5.711Z" transform="translate(0 131.445) rotate(-45)" fill="#fff"/>
    <path id="Path_3069-28" data-name="Path 3069" d="M5.711,0l5.723,5.723L5.723,11.434,0,5.711Z" transform="translate(41.206 131.445) rotate(-45)" fill="#fff"/>
    <path id="Path_3069-29" data-name="Path 3069" d="M5.711,0l5.723,5.723L5.723,11.434,0,5.711Z" transform="translate(82.413 131.445) rotate(-45)" fill="#fff"/>
    <path id="Path_3069-30" data-name="Path 3069" d="M5.711,0l5.723,5.723L5.723,11.434,0,5.711Z" transform="translate(123.619 131.445) rotate(-45)" fill="#fff"/>
    <path id="Path_3069-31" data-name="Path 3069" d="M5.711,0l5.723,5.723L5.723,11.434,0,5.711Z" transform="translate(164.826 131.445) rotate(-45)" fill="#fff"/>
    <path id="Path_3069-32" data-name="Path 3069" d="M5.711,0l5.723,5.723L5.723,11.434,0,5.711Z" transform="translate(206.032 131.445) rotate(-45)" fill="#fff"/>
    <path id="Path_3069-33" data-name="Path 3069" d="M5.711,0l5.723,5.723L5.723,11.434,0,5.711Z" transform="translate(247.238 131.445) rotate(-45)" fill="#fff"/>
    <path id="Path_3069-34" data-name="Path 3069" d="M5.711,0l5.723,5.723L5.723,11.434,0,5.711Z" transform="translate(288.445 131.445) rotate(-45)" fill="#fff"/>
    <path id="Path_3069-35" data-name="Path 3069" d="M5.711,0l5.723,5.723L5.723,11.434,0,5.711Z" transform="translate(329.651 131.445) rotate(-45)" fill="#fff"/>
    <path id="Path_3069-36" data-name="Path 3069" d="M5.711,0l5.723,5.723L5.723,11.434,0,5.711Z" transform="translate(370.858 131.445) rotate(-45)" fill="#fff"/>
    <path id="Path_3069-37" data-name="Path 3069" d="M5.711,0l5.723,5.723L5.723,11.434,0,5.711Z" transform="translate(0 172.566) rotate(-45)" fill="#fff"/>
    <path id="Path_3069-38" data-name="Path 3069" d="M5.711,0l5.723,5.723L5.723,11.434,0,5.711Z" transform="translate(41.206 172.566) rotate(-45)" fill="#fff"/>
    <path id="Path_3069-39" data-name="Path 3069" d="M5.711,0l5.723,5.723L5.723,11.434,0,5.711Z" transform="translate(82.413 172.566) rotate(-45)" fill="#fff"/>
    <path id="Path_3069-40" data-name="Path 3069" d="M5.711,0l5.723,5.723L5.723,11.434,0,5.711Z" transform="translate(123.619 172.566) rotate(-45)" fill="#fff"/>
    <path id="Path_3069-41" data-name="Path 3069" d="M5.711,0l5.723,5.723L5.723,11.434,0,5.711Z" transform="translate(164.826 172.566) rotate(-45)" fill="#fff"/>
    <path id="Path_3069-42" data-name="Path 3069" d="M5.711,0l5.723,5.723L5.723,11.434,0,5.711Z" transform="translate(206.032 172.566) rotate(-45)" fill="#fff"/>
    <path id="Path_3069-43" data-name="Path 3069" d="M5.711,0l5.723,5.723L5.723,11.434,0,5.711Z" transform="translate(247.238 172.566) rotate(-45)" fill="#fff"/>
    <path id="Path_3069-44" data-name="Path 3069" d="M5.711,0l5.723,5.723L5.723,11.434,0,5.711Z" transform="translate(288.445 172.566) rotate(-45)" fill="#fff"/>
    <path id="Path_3069-45" data-name="Path 3069" d="M5.711,0l5.723,5.723L5.723,11.434,0,5.711Z" transform="translate(329.651 172.566) rotate(-45)" fill="#fff"/>
    <path id="Path_3069-46" data-name="Path 3069" d="M5.711,0l5.723,5.723L5.723,11.434,0,5.711Z" transform="translate(370.858 172.566) rotate(-45)" fill="#fff"/>
    <path id="Path_3069-47" data-name="Path 3069" d="M5.711,0l5.723,5.723L5.723,11.434,0,5.711Z" transform="translate(0 213.686) rotate(-45)" fill="#fff"/>
    <path id="Path_3069-48" data-name="Path 3069" d="M5.711,0l5.723,5.723L5.723,11.434,0,5.711Z" transform="translate(41.206 213.686) rotate(-45)" fill="#fff"/>
    <path id="Path_3069-49" data-name="Path 3069" d="M5.711,0l5.723,5.723L5.723,11.434,0,5.711Z" transform="translate(82.413 213.686) rotate(-45)" fill="#fff"/>
    <path id="Path_3069-50" data-name="Path 3069" d="M5.711,0l5.723,5.723L5.723,11.434,0,5.711Z" transform="translate(123.619 213.686) rotate(-45)" fill="#fff"/>
    <path id="Path_3069-51" data-name="Path 3069" d="M5.711,0l5.723,5.723L5.723,11.434,0,5.711Z" transform="translate(164.826 213.686) rotate(-45)" fill="#fff"/>
    <path id="Path_3069-52" data-name="Path 3069" d="M5.711,0l5.723,5.723L5.723,11.434,0,5.711Z" transform="translate(206.032 213.686) rotate(-45)" fill="#fff"/>
    <path id="Path_3069-53" data-name="Path 3069" d="M5.711,0l5.723,5.723L5.723,11.434,0,5.711Z" transform="translate(247.238 213.686) rotate(-45)" fill="#fff"/>
    <path id="Path_3091" data-name="Path 3091" d="M5.711,0l5.723,5.723L5.723,11.434,0,5.711Z" transform="translate(288.446 213.686) rotate(-45)" fill="#fff"/>
    <path id="Path_3069-54" data-name="Path 3069" d="M5.711,0l5.723,5.723L5.723,11.434,0,5.711Z" transform="translate(329.651 213.686) rotate(-45)" fill="#fff"/>
    <path id="Path_3069-55" data-name="Path 3069" d="M5.711,0l5.723,5.723L5.723,11.434,0,5.711Z" transform="translate(370.858 213.686) rotate(-45)" fill="#fff"/>
    <path id="Path_3069-56" data-name="Path 3069" d="M5.711,0l5.723,5.723L5.723,11.434,0,5.711Z" transform="translate(0 254.806) rotate(-45)" fill="#fff"/>
    <path id="Path_3069-57" data-name="Path 3069" d="M5.711,0l5.723,5.723L5.723,11.434,0,5.711Z" transform="translate(41.206 254.806) rotate(-45)" fill="#fff"/>
    <path id="Path_3069-58" data-name="Path 3069" d="M5.711,0l5.723,5.723L5.723,11.434,0,5.711Z" transform="translate(82.413 254.806) rotate(-45)" fill="#fff"/>
    <path id="Path_3069-59" data-name="Path 3069" d="M5.711,0l5.723,5.723L5.723,11.434,0,5.711Z" transform="translate(123.619 254.806) rotate(-45)" fill="#fff"/>
    <path id="Path_3069-60" data-name="Path 3069" d="M5.711,0l5.723,5.723L5.723,11.434,0,5.711Z" transform="translate(164.826 254.806) rotate(-45)" fill="#fff"/>
    <path id="Path_3069-61" data-name="Path 3069" d="M5.711,0l5.723,5.723L5.723,11.434,0,5.711Z" transform="translate(206.032 254.806) rotate(-45)" fill="#fff"/>
    <path id="Path_3069-62" data-name="Path 3069" d="M5.711,0l5.723,5.723L5.723,11.434,0,5.711Z" transform="translate(247.238 254.806) rotate(-45)" fill="#fff"/>
    <path id="Path_3069-63" data-name="Path 3069" d="M5.711,0l5.723,5.723L5.723,11.434,0,5.711Z" transform="translate(288.445 254.806) rotate(-45)" fill="#fff"/>
    <path id="Path_3069-64" data-name="Path 3069" d="M5.711,0l5.723,5.723L5.723,11.434,0,5.711Z" transform="translate(329.651 254.806) rotate(-45)" fill="#fff"/>
    <path id="Path_3069-65" data-name="Path 3069" d="M5.711,0l5.723,5.723L5.723,11.434,0,5.711Z" transform="translate(370.858 254.806) rotate(-45)" fill="#fff"/>
    <path id="Path_3069-66" data-name="Path 3069" d="M5.711,0l5.723,5.723L5.723,11.434,0,5.711Z" transform="translate(0 295.926) rotate(-45)" fill="#fff"/>
    <path id="Path_3069-67" data-name="Path 3069" d="M5.711,0l5.723,5.723L5.723,11.434,0,5.711Z" transform="translate(41.206 295.926) rotate(-45)" fill="#fff"/>
    <path id="Path_3069-68" data-name="Path 3069" d="M5.711,0l5.723,5.723L5.723,11.434,0,5.711Z" transform="translate(82.413 295.926) rotate(-45)" fill="#fff"/>
    <path id="Path_3069-69" data-name="Path 3069" d="M5.711,0l5.723,5.723L5.723,11.434,0,5.711Z" transform="translate(123.619 295.926) rotate(-45)" fill="#fff"/>
    <path id="Path_3069-70" data-name="Path 3069" d="M5.711,0l5.723,5.723L5.723,11.434,0,5.711Z" transform="translate(164.826 295.926) rotate(-45)" fill="#fff"/>
    <path id="Path_3069-71" data-name="Path 3069" d="M5.711,0l5.723,5.723L5.723,11.434,0,5.711Z" transform="translate(206.032 295.926) rotate(-45)" fill="#fff"/>
    <path id="Path_3069-72" data-name="Path 3069" d="M5.711,0l5.723,5.723L5.723,11.434,0,5.711Z" transform="translate(247.238 295.926) rotate(-45)" fill="#fff"/>
    <path id="Path_3069-73" data-name="Path 3069" d="M5.711,0l5.723,5.723L5.723,11.434,0,5.711Z" transform="translate(329.651 295.926) rotate(-45)" fill="#fff"/>
    <path id="Path_3069-74" data-name="Path 3069" d="M5.711,0l5.723,5.723L5.723,11.434,0,5.711Z" transform="translate(370.858 295.926) rotate(-45)" fill="#fff"/>
    <path id="Path_3069-75" data-name="Path 3069" d="M5.711,0l5.723,5.723L5.723,11.434,0,5.711Z" transform="translate(0 337.046) rotate(-45)" fill="#fff"/>
    <path id="Path_3069-76" data-name="Path 3069" d="M5.711,0l5.723,5.723L5.723,11.434,0,5.711Z" transform="translate(41.206 337.046) rotate(-45)" fill="#fff"/>
    <path id="Path_3069-77" data-name="Path 3069" d="M5.711,0l5.723,5.723L5.723,11.434,0,5.711Z" transform="translate(82.413 337.046) rotate(-45)" fill="#fff"/>
    <path id="Path_3069-78" data-name="Path 3069" d="M5.711,0l5.723,5.723L5.723,11.434,0,5.711Z" transform="translate(123.619 337.046) rotate(-45)" fill="#fff"/>
    <path id="Path_3069-79" data-name="Path 3069" d="M5.711,0l5.723,5.723L5.723,11.434,0,5.711Z" transform="translate(164.826 337.046) rotate(-45)" fill="#fff"/>
    <path id="Path_3069-80" data-name="Path 3069" d="M5.711,0l5.723,5.723L5.723,11.434,0,5.711Z" transform="translate(206.032 337.046) rotate(-45)" fill="#fff"/>
    <path id="Path_3069-81" data-name="Path 3069" d="M5.711,0l5.723,5.723L5.723,11.434,0,5.711Z" transform="translate(247.238 337.046) rotate(-45)" fill="#fff"/>
    <path id="Path_3069-82" data-name="Path 3069" d="M5.711,0l5.723,5.723L5.723,11.434,0,5.711Z" transform="translate(288.445 337.046) rotate(-45)" fill="#fff"/>
    <path id="Path_3069-83" data-name="Path 3069" d="M5.711,0l5.723,5.723L5.723,11.434,0,5.711Z" transform="translate(329.651 337.046) rotate(-45)" fill="#fff"/>
    <path id="Path_3069-84" data-name="Path 3069" d="M5.711,0l5.723,5.723L5.723,11.434,0,5.711Z" transform="translate(370.858 337.046) rotate(-45)" fill="#fff"/>
    <path id="Path_3069-85" data-name="Path 3069" d="M5.711,0l5.723,5.723L5.723,11.434,0,5.711Z" transform="translate(0 378.166) rotate(-45)" fill="#fff"/>
    <path id="Path_3069-86" data-name="Path 3069" d="M5.711,0l5.723,5.723L5.723,11.434,0,5.711Z" transform="translate(41.206 378.166) rotate(-45)" fill="#fff"/>
    <path id="Path_3069-87" data-name="Path 3069" d="M5.711,0l5.723,5.723L5.723,11.434,0,5.711Z" transform="translate(82.413 378.166) rotate(-45)" fill="#fff"/>
    <path id="Path_3069-88" data-name="Path 3069" d="M5.711,0l5.723,5.723L5.723,11.434,0,5.711Z" transform="translate(123.619 378.166) rotate(-45)" fill="#fff"/>
    <path id="Path_3069-89" data-name="Path 3069" d="M5.711,0l5.723,5.723L5.723,11.434,0,5.711Z" transform="translate(164.826 378.166) rotate(-45)" fill="#fff"/>
    <path id="Path_3069-90" data-name="Path 3069" d="M5.711,0l5.723,5.723L5.723,11.434,0,5.711Z" transform="translate(206.032 378.166) rotate(-45)" fill="#fff"/>
    <path id="Path_3069-91" data-name="Path 3069" d="M5.711,0l5.723,5.723L5.723,11.434,0,5.711Z" transform="translate(247.238 378.166) rotate(-45)" fill="#fff"/>
    <path id="Path_3069-92" data-name="Path 3069" d="M5.711,0l5.723,5.723L5.723,11.434,0,5.711Z" transform="translate(288.445 378.166) rotate(-45)" fill="#fff"/>
    <path id="Path_3069-93" data-name="Path 3069" d="M5.711,0l5.723,5.723L5.723,11.434,0,5.711Z" transform="translate(329.651 378.166) rotate(-45)" fill="#fff"/>
    <path id="Path_3069-94" data-name="Path 3069" d="M5.711,0l5.723,5.723L5.723,11.434,0,5.711Z" transform="translate(370.858 378.166) rotate(-45)" fill="#fff"/>
    <path id="Path_3080" data-name="Path 3080" d="M5.711,0l5.723,5.723L5.723,11.434,0,5.711Z" transform="translate(288.446 295.926) rotate(-45)" fill="#fff"/>
  </g>
  <path id="Path_3092" data-name="Path 3092" d="M4.131,351.474,366.25,396.125l9.795-7.2L293.742,1.047Z" transform="translate(0.165 0.042)" fill="#0b2aea"/>
  <g id="Group_4664" data-name="Group 4664">
    <g id="Group_3278" data-name="Group 3278" transform="translate(0 234.837)">
      <g id="Group_3272" data-name="Group 3272" transform="translate(0 0)">
        <g id="Rectangle_423" data-name="Rectangle 423" fill="#fff" stroke="#0e68a1" stroke-width="2">
          <rect width="116.681" height="116.681" stroke="none"/>
          <rect x="1" y="1" width="114.681" height="114.681" fill="none"/>
        </g>
      </g>
      <g id="Group_3273" data-name="Group 3273" transform="translate(15.738 36.818)">
        <path id="Path_2905" data-name="Path 2905" d="M-21672.525-17978.4l-18.77-18.949-22.17,17.2-18.2-41.887-25.7,11.117" transform="translate(21757.357 18022.035)" fill="none" stroke="#0b2aea" stroke-width="4"/>
        <path id="Path_2906" data-name="Path 2906" d="M-21676.689-17980.363h-17.432l-19.42-8.451-21.814-3.039-22,3.039" transform="translate(21761.52 18012.279)" fill="none" stroke="#fc0d1b" stroke-width="4"/>
      </g>
    </g>
    <g id="Group_3277" data-name="Group 3277" transform="translate(114.599 178.575)">
      <g id="Path_2907" data-name="Path 2907" transform="translate(0 0)" fill="#fff">
        <path d="M 115.9894180297852 115.9894180297852 L 1.000001311302185 115.9894180297852 L 1.000001311302185 1.000001311302185 L 115.9894180297852 1.000001311302185 L 115.9894180297852 115.9894180297852 Z" stroke="none"/>
        <path d="M 1.999992370605469 1.999992370605469 L 1.999992370605469 114.9894104003906 L 114.9894104003906 114.9894104003906 L 114.9894104003906 1.999992370605469 L 1.999992370605469 1.999992370605469 M -7.62939453125e-06 -7.62939453125e-06 L 116.9894104003906 -7.62939453125e-06 L 116.9894104003906 116.9894104003906 L -7.62939453125e-06 116.9894104003906 L -7.62939453125e-06 -7.62939453125e-06 Z" stroke="none" fill="#0e68a1"/>
      </g>
      <g id="Group_486" data-name="Group 486" transform="translate(16.935 15.92)">
        <path id="Path_4" data-name="Path 4" d="M1257.492,343.023a41.585,41.585,0,0,0-39.671,30.216,43.058,43.058,0,0,0,16.738,47.683,40.621,40.621,0,0,0,49.347-2.652l-10.411-12.9a24.611,24.611,0,0,1-29.9,1.607,26.087,26.087,0,0,1-10.142-28.892,25.2,25.2,0,0,1,24.036-18.309Z" transform="translate(-1216.051 -343.023)" fill="#fc0d1b"/>
        <path id="Path_5" data-name="Path 5" d="M1208.05,418.27a42.5,42.5,0,0,0-27.091-75.247v16.749a25.749,25.749,0,0,1,16.415,45.589Z" transform="translate(-1140.194 -343.023)" fill="#0b2aea"/>
      </g>
    </g>
    <g id="Group_3285" data-name="Group 3285" transform="translate(0 120.234)">
      <g id="Group_3272-2" data-name="Group 3272" transform="translate(0 0)">
        <g id="Rectangle_423-2" data-name="Rectangle 423" fill="#fff" stroke="#0e68a1" stroke-width="2">
          <rect width="116.681" height="116.681" stroke="none"/>
          <rect x="1" y="1" width="114.681" height="114.681" fill="none"/>
        </g>
      </g>
      <g id="Group_3286" data-name="Group 3286" transform="translate(22.535 28.829)">
        <g id="Rectangle_424" data-name="Rectangle 424" transform="translate(35.097)" fill="#0b2aea" stroke="#fff" stroke-width="1">
          <rect width="35.932" height="35.097" stroke="none"/>
          <rect x="0.5" y="0.5" width="34.932" height="34.097" fill="none"/>
        </g>
        <g id="Rectangle_431" data-name="Rectangle 431" transform="translate(0 24.234)" fill="#fc0d1b" stroke="#fff" stroke-width="1">
          <rect width="35.097" height="35.097" stroke="none"/>
          <rect x="0.5" y="0.5" width="34.097" height="34.097" fill="none"/>
        </g>
        <g id="Rectangle_425" data-name="Rectangle 425" transform="translate(52.645 35.097)" fill="#0b2aea" stroke="#fff" stroke-width="1">
          <rect width="18.384" height="24.234" stroke="none"/>
          <rect x="0.5" y="0.5" width="17.384" height="23.234" fill="none"/>
        </g>
        <g id="Rectangle_430" data-name="Rectangle 430" fill="#fc0d1b" stroke="#fff" stroke-width="1">
          <rect width="19.22" height="24.234" stroke="none"/>
          <rect x="0.5" y="0.5" width="18.22" height="23.234" fill="none"/>
        </g>
        <g id="Rectangle_426" data-name="Rectangle 426" transform="translate(35.097 35.097)" fill="#0b2aea" stroke="#fff" stroke-width="1">
          <rect width="17.548" height="10.863" stroke="none"/>
          <rect x="0.5" y="0.5" width="16.548" height="9.863" fill="none"/>
        </g>
        <g id="Rectangle_429" data-name="Rectangle 429" transform="translate(19.22 12.535)" fill="#fc0d1b" stroke="#fff" stroke-width="1">
          <rect width="15.877" height="11.699" stroke="none"/>
          <rect x="0.5" y="0.5" width="14.877" height="10.699" fill="none"/>
        </g>
        <g id="Rectangle_427" data-name="Rectangle 427" transform="translate(35.097 45.96)" fill="#0b2aea" stroke="#fff" stroke-width="1">
          <rect width="17.548" height="13.37" stroke="none"/>
          <rect x="0.5" y="0.5" width="16.548" height="12.37" fill="none"/>
        </g>
        <g id="Rectangle_428" data-name="Rectangle 428" transform="translate(19.22)" fill="#fc0d1b" stroke="#fff" stroke-width="1">
          <rect width="15.877" height="12.535" stroke="none"/>
          <rect x="0.5" y="0.5" width="14.877" height="11.535" fill="none"/>
        </g>
      </g>
    </g>
    <g id="Group_3276" data-name="Group 3276" transform="translate(296.103) rotate(90)">
      <g id="Rectangle_423-3" data-name="Rectangle 423" fill="#fff" stroke="#0e68a1" stroke-width="2">
        <rect width="181.123" height="181.503" stroke="none"/>
        <rect x="1" y="1" width="179.123" height="179.503" fill="none"/>
      </g>
      <g id="Group_3269" data-name="Group 3269" transform="translate(25.3 36.993)">
        <g id="Group_3265" data-name="Group 3265" transform="translate(111.091 48.775)">
          <rect id="Rectangle_3" data-name="Rectangle 3" width="11.43" height="43.018" transform="translate(14.349 15.533)" fill="#0b2aea"/>
          <rect id="Rectangle_4" data-name="Rectangle 4" width="11.43" height="58.551" transform="translate(0 0)" fill="#fc0d1b"/>
        </g>
        <g id="Group_3266" data-name="Group 3266" transform="translate(74.061 0)">
          <rect id="Rectangle_3-2" data-name="Rectangle 3" width="11.43" height="78.853" transform="translate(14.349 28.472)" fill="#0b2aea"/>
          <rect id="Rectangle_4-2" data-name="Rectangle 4" width="11.43" height="107.326" fill="#fc0d1b"/>
        </g>
        <g id="Group_3267" data-name="Group 3267" transform="translate(37.03 32.297)">
          <rect id="Rectangle_3-3" data-name="Rectangle 3" width="11.43" height="55.125" transform="translate(14.349 19.904)" fill="#0b2aea"/>
          <rect id="Rectangle_4-3" data-name="Rectangle 4" width="11.43" height="75.03" transform="translate(0 0)" fill="#fc0d1b"/>
        </g>
        <g id="Group_3268" data-name="Group 3268" transform="translate(0 0)">
          <rect id="Rectangle_3-4" data-name="Rectangle 3" width="11.43" height="78.853" transform="translate(14.349 28.472)" fill="#0b2aea"/>
          <rect id="Rectangle_4-4" data-name="Rectangle 4" width="11.43" height="107.326" fill="#fc0d1b"/>
        </g>
      </g>
    </g>
  </g>
  <path id="Path_3093" data-name="Path 3093" d="M5.711,0l5.723,5.723L5.723,11.434,0,5.711Z" transform="translate(365.124 392.387) rotate(-45)" fill="#fff"/>
</svg>
