<svg xmlns="http://www.w3.org/2000/svg" width="422.5" height="441.593" viewBox="0 0 422.5 441.593"><defs><style>.a,.c,.f{fill:#fff;}.b{fill:rgba(0,103,163,0.8);}.c{stroke:#0e68a1;stroke-width:2px;}.d,.e,.l{fill:none;}.d{stroke:#0067a3;}.d,.e{stroke-width:4px;}.e{stroke:#ee4538;}.g,.j{fill:#ee4538;}.h,.i{fill:#0067a3;}.i,.j{stroke:#fff;}.k,.m{stroke:none;}.m{fill:#0e68a1;}</style></defs><g transform="translate(35.472 55.342)"><path class="a" d="M5.711,0l5.723,5.723L5.723,11.434,0,5.711Z" transform="translate(82.413 8.085) rotate(-45)"/><path class="a" d="M5.711,0l5.723,5.723L5.723,11.434,0,5.711Z" transform="translate(123.619 8.085) rotate(-45)"/><path class="a" d="M5.711,0l5.723,5.723L5.723,11.434,0,5.711Z" transform="translate(164.826 8.085) rotate(-45)"/><path class="a" d="M5.711,0l5.723,5.723L5.723,11.434,0,5.711Z" transform="translate(206.032 8.085) rotate(-45)"/><path class="a" d="M5.711,0l5.723,5.723L5.723,11.434,0,5.711Z" transform="translate(247.238 8.085) rotate(-45)"/><path class="a" d="M5.711,0l5.723,5.723L5.723,11.434,0,5.711Z" transform="translate(288.445 8.085) rotate(-45)"/><path class="a" d="M5.711,0l5.723,5.723L5.723,11.434,0,5.711Z" transform="translate(329.651 8.085) rotate(-45)"/><path class="a" d="M5.711,0l5.723,5.723L5.723,11.434,0,5.711Z" transform="translate(370.858 8.085) rotate(-45)"/><path class="a" d="M5.711,0l5.723,5.723L5.723,11.434,0,5.711Z" transform="translate(82.413 49.205) rotate(-45)"/><path class="a" d="M5.711,0l5.723,5.723L5.723,11.434,0,5.711Z" transform="translate(123.619 49.205) rotate(-45)"/><path class="a" d="M5.711,0l5.723,5.723L5.723,11.434,0,5.711Z" transform="translate(164.826 49.205) rotate(-45)"/><path class="a" d="M5.711,0l5.723,5.723L5.723,11.434,0,5.711Z" transform="translate(206.032 49.205) rotate(-45)"/><path class="a" d="M5.711,0l5.723,5.723L5.723,11.434,0,5.711Z" transform="translate(247.238 49.205) rotate(-45)"/><path class="a" d="M5.711,0l5.723,5.723L5.723,11.434,0,5.711Z" transform="translate(288.445 49.205) rotate(-45)"/><path class="a" d="M5.711,0l5.723,5.723L5.723,11.434,0,5.711Z" transform="translate(329.651 49.205) rotate(-45)"/><path class="a" d="M5.711,0l5.723,5.723L5.723,11.434,0,5.711Z" transform="translate(370.858 49.205) rotate(-45)"/><path class="a" d="M5.711,0l5.723,5.723L5.723,11.434,0,5.711Z" transform="translate(0 90.325) rotate(-45)"/><path class="a" d="M5.711,0l5.723,5.723L5.723,11.434,0,5.711Z" transform="translate(41.206 90.325) rotate(-45)"/><path class="a" d="M5.711,0l5.723,5.723L5.723,11.434,0,5.711Z" transform="translate(82.413 90.325) rotate(-45)"/><path class="a" d="M5.711,0l5.723,5.723L5.723,11.434,0,5.711Z" transform="translate(123.619 90.325) rotate(-45)"/><path class="a" d="M5.711,0l5.723,5.723L5.723,11.434,0,5.711Z" transform="translate(164.826 90.325) rotate(-45)"/><path class="a" d="M5.711,0l5.723,5.723L5.723,11.434,0,5.711Z" transform="translate(206.032 90.325) rotate(-45)"/><path class="a" d="M5.711,0l5.723,5.723L5.723,11.434,0,5.711Z" transform="translate(247.238 90.325) rotate(-45)"/><path class="a" d="M5.711,0l5.723,5.723L5.723,11.434,0,5.711Z" transform="translate(288.445 90.325) rotate(-45)"/><path class="a" d="M5.711,0l5.723,5.723L5.723,11.434,0,5.711Z" transform="translate(329.651 90.325) rotate(-45)"/><path class="a" d="M5.711,0l5.723,5.723L5.723,11.434,0,5.711Z" transform="translate(370.858 90.325) rotate(-45)"/><path class="a" d="M5.711,0l5.723,5.723L5.723,11.434,0,5.711Z" transform="translate(0 131.445) rotate(-45)"/><path class="a" d="M5.711,0l5.723,5.723L5.723,11.434,0,5.711Z" transform="translate(41.206 131.445) rotate(-45)"/><path class="a" d="M5.711,0l5.723,5.723L5.723,11.434,0,5.711Z" transform="translate(82.413 131.445) rotate(-45)"/><path class="a" d="M5.711,0l5.723,5.723L5.723,11.434,0,5.711Z" transform="translate(123.619 131.445) rotate(-45)"/><path class="a" d="M5.711,0l5.723,5.723L5.723,11.434,0,5.711Z" transform="translate(164.826 131.445) rotate(-45)"/><path class="a" d="M5.711,0l5.723,5.723L5.723,11.434,0,5.711Z" transform="translate(206.032 131.445) rotate(-45)"/><path class="a" d="M5.711,0l5.723,5.723L5.723,11.434,0,5.711Z" transform="translate(247.238 131.445) rotate(-45)"/><path class="a" d="M5.711,0l5.723,5.723L5.723,11.434,0,5.711Z" transform="translate(288.445 131.445) rotate(-45)"/><path class="a" d="M5.711,0l5.723,5.723L5.723,11.434,0,5.711Z" transform="translate(329.651 131.445) rotate(-45)"/><path class="a" d="M5.711,0l5.723,5.723L5.723,11.434,0,5.711Z" transform="translate(370.858 131.445) rotate(-45)"/><path class="a" d="M5.711,0l5.723,5.723L5.723,11.434,0,5.711Z" transform="translate(0 172.566) rotate(-45)"/><path class="a" d="M5.711,0l5.723,5.723L5.723,11.434,0,5.711Z" transform="translate(41.206 172.566) rotate(-45)"/><path class="a" d="M5.711,0l5.723,5.723L5.723,11.434,0,5.711Z" transform="translate(82.413 172.566) rotate(-45)"/><path class="a" d="M5.711,0l5.723,5.723L5.723,11.434,0,5.711Z" transform="translate(123.619 172.566) rotate(-45)"/><path class="a" d="M5.711,0l5.723,5.723L5.723,11.434,0,5.711Z" transform="translate(164.826 172.566) rotate(-45)"/><path class="a" d="M5.711,0l5.723,5.723L5.723,11.434,0,5.711Z" transform="translate(206.032 172.566) rotate(-45)"/><path class="a" d="M5.711,0l5.723,5.723L5.723,11.434,0,5.711Z" transform="translate(247.238 172.566) rotate(-45)"/><path class="a" d="M5.711,0l5.723,5.723L5.723,11.434,0,5.711Z" transform="translate(288.445 172.566) rotate(-45)"/><path class="a" d="M5.711,0l5.723,5.723L5.723,11.434,0,5.711Z" transform="translate(329.651 172.566) rotate(-45)"/><path class="a" d="M5.711,0l5.723,5.723L5.723,11.434,0,5.711Z" transform="translate(370.858 172.566) rotate(-45)"/><path class="a" d="M5.711,0l5.723,5.723L5.723,11.434,0,5.711Z" transform="translate(0 213.686) rotate(-45)"/><path class="a" d="M5.711,0l5.723,5.723L5.723,11.434,0,5.711Z" transform="translate(41.206 213.686) rotate(-45)"/><path class="a" d="M5.711,0l5.723,5.723L5.723,11.434,0,5.711Z" transform="translate(82.413 213.686) rotate(-45)"/><path class="a" d="M5.711,0l5.723,5.723L5.723,11.434,0,5.711Z" transform="translate(123.619 213.686) rotate(-45)"/><path class="a" d="M5.711,0l5.723,5.723L5.723,11.434,0,5.711Z" transform="translate(164.826 213.686) rotate(-45)"/><path class="a" d="M5.711,0l5.723,5.723L5.723,11.434,0,5.711Z" transform="translate(206.032 213.686) rotate(-45)"/><path class="a" d="M5.711,0l5.723,5.723L5.723,11.434,0,5.711Z" transform="translate(247.238 213.686) rotate(-45)"/><path class="a" d="M5.711,0l5.723,5.723L5.723,11.434,0,5.711Z" transform="translate(288.446 213.686) rotate(-45)"/><path class="a" d="M5.711,0l5.723,5.723L5.723,11.434,0,5.711Z" transform="translate(329.651 213.686) rotate(-45)"/><path class="a" d="M5.711,0l5.723,5.723L5.723,11.434,0,5.711Z" transform="translate(370.858 213.686) rotate(-45)"/><path class="a" d="M5.711,0l5.723,5.723L5.723,11.434,0,5.711Z" transform="translate(0 254.806) rotate(-45)"/><path class="a" d="M5.711,0l5.723,5.723L5.723,11.434,0,5.711Z" transform="translate(41.206 254.806) rotate(-45)"/><path class="a" d="M5.711,0l5.723,5.723L5.723,11.434,0,5.711Z" transform="translate(82.413 254.806) rotate(-45)"/><path class="a" d="M5.711,0l5.723,5.723L5.723,11.434,0,5.711Z" transform="translate(123.619 254.806) rotate(-45)"/><path class="a" d="M5.711,0l5.723,5.723L5.723,11.434,0,5.711Z" transform="translate(164.826 254.806) rotate(-45)"/><path class="a" d="M5.711,0l5.723,5.723L5.723,11.434,0,5.711Z" transform="translate(206.032 254.806) rotate(-45)"/><path class="a" d="M5.711,0l5.723,5.723L5.723,11.434,0,5.711Z" transform="translate(247.238 254.806) rotate(-45)"/><path class="a" d="M5.711,0l5.723,5.723L5.723,11.434,0,5.711Z" transform="translate(288.445 254.806) rotate(-45)"/><path class="a" d="M5.711,0l5.723,5.723L5.723,11.434,0,5.711Z" transform="translate(329.651 254.806) rotate(-45)"/><path class="a" d="M5.711,0l5.723,5.723L5.723,11.434,0,5.711Z" transform="translate(370.858 254.806) rotate(-45)"/><path class="a" d="M5.711,0l5.723,5.723L5.723,11.434,0,5.711Z" transform="translate(0 295.926) rotate(-45)"/><path class="a" d="M5.711,0l5.723,5.723L5.723,11.434,0,5.711Z" transform="translate(41.206 295.926) rotate(-45)"/><path class="a" d="M5.711,0l5.723,5.723L5.723,11.434,0,5.711Z" transform="translate(82.413 295.926) rotate(-45)"/><path class="a" d="M5.711,0l5.723,5.723L5.723,11.434,0,5.711Z" transform="translate(123.619 295.926) rotate(-45)"/><path class="a" d="M5.711,0l5.723,5.723L5.723,11.434,0,5.711Z" transform="translate(164.826 295.926) rotate(-45)"/><path class="a" d="M5.711,0l5.723,5.723L5.723,11.434,0,5.711Z" transform="translate(206.032 295.926) rotate(-45)"/><path class="a" d="M5.711,0l5.723,5.723L5.723,11.434,0,5.711Z" transform="translate(247.238 295.926) rotate(-45)"/><path class="a" d="M5.711,0l5.723,5.723L5.723,11.434,0,5.711Z" transform="translate(329.651 295.926) rotate(-45)"/><path class="a" d="M5.711,0l5.723,5.723L5.723,11.434,0,5.711Z" transform="translate(370.858 295.926) rotate(-45)"/><path class="a" d="M5.711,0l5.723,5.723L5.723,11.434,0,5.711Z" transform="translate(0 337.046) rotate(-45)"/><path class="a" d="M5.711,0l5.723,5.723L5.723,11.434,0,5.711Z" transform="translate(41.206 337.046) rotate(-45)"/><path class="a" d="M5.711,0l5.723,5.723L5.723,11.434,0,5.711Z" transform="translate(82.413 337.046) rotate(-45)"/><path class="a" d="M5.711,0l5.723,5.723L5.723,11.434,0,5.711Z" transform="translate(123.619 337.046) rotate(-45)"/><path class="a" d="M5.711,0l5.723,5.723L5.723,11.434,0,5.711Z" transform="translate(164.826 337.046) rotate(-45)"/><path class="a" d="M5.711,0l5.723,5.723L5.723,11.434,0,5.711Z" transform="translate(206.032 337.046) rotate(-45)"/><path class="a" d="M5.711,0l5.723,5.723L5.723,11.434,0,5.711Z" transform="translate(247.238 337.046) rotate(-45)"/><path class="a" d="M5.711,0l5.723,5.723L5.723,11.434,0,5.711Z" transform="translate(288.445 337.046) rotate(-45)"/><path class="a" d="M5.711,0l5.723,5.723L5.723,11.434,0,5.711Z" transform="translate(329.651 337.046) rotate(-45)"/><path class="a" d="M5.711,0l5.723,5.723L5.723,11.434,0,5.711Z" transform="translate(370.858 337.046) rotate(-45)"/><path class="a" d="M5.711,0l5.723,5.723L5.723,11.434,0,5.711Z" transform="translate(0 378.166) rotate(-45)"/><path class="a" d="M5.711,0l5.723,5.723L5.723,11.434,0,5.711Z" transform="translate(41.206 378.166) rotate(-45)"/><path class="a" d="M5.711,0l5.723,5.723L5.723,11.434,0,5.711Z" transform="translate(82.413 378.166) rotate(-45)"/><path class="a" d="M5.711,0l5.723,5.723L5.723,11.434,0,5.711Z" transform="translate(123.619 378.166) rotate(-45)"/><path class="a" d="M5.711,0l5.723,5.723L5.723,11.434,0,5.711Z" transform="translate(164.826 378.166) rotate(-45)"/><path class="a" d="M5.711,0l5.723,5.723L5.723,11.434,0,5.711Z" transform="translate(206.032 378.166) rotate(-45)"/><path class="a" d="M5.711,0l5.723,5.723L5.723,11.434,0,5.711Z" transform="translate(247.238 378.166) rotate(-45)"/><path class="a" d="M5.711,0l5.723,5.723L5.723,11.434,0,5.711Z" transform="translate(288.445 378.166) rotate(-45)"/><path class="a" d="M5.711,0l5.723,5.723L5.723,11.434,0,5.711Z" transform="translate(329.651 378.166) rotate(-45)"/><path class="a" d="M5.711,0l5.723,5.723L5.723,11.434,0,5.711Z" transform="translate(370.858 378.166) rotate(-45)"/><path class="a" d="M5.711,0l5.723,5.723L5.723,11.434,0,5.711Z" transform="translate(288.446 295.926) rotate(-45)"/></g><path class="b" d="M4.131,351.474,366.25,396.125l9.795-7.2L293.742,1.047Z" transform="translate(0.165 0.042)"/><g transform="translate(0 234.837)"><g transform="translate(0 0)"><g class="c"><rect class="k" width="116.681" height="116.681"/><rect class="l" x="1" y="1" width="114.681" height="114.681"/></g></g><g transform="translate(15.738 36.818)"><path class="d" d="M-21672.525-17978.4l-18.77-18.949-22.17,17.2-18.2-41.887-25.7,11.117" transform="translate(21757.357 18022.035)"/><path class="e" d="M-21676.689-17980.363h-17.432l-19.42-8.451-21.814-3.039-22,3.039" transform="translate(21761.52 18012.279)"/></g></g><g transform="translate(114.599 178.575)"><g class="f" transform="translate(0 0)"><path class="k" d="M 115.9894180297852 115.9894180297852 L 1.000001311302185 115.9894180297852 L 1.000001311302185 1.000001311302185 L 115.9894180297852 1.000001311302185 L 115.9894180297852 115.9894180297852 Z"/><path class="m" d="M 1.999992370605469 1.999992370605469 L 1.999992370605469 114.9894104003906 L 114.9894104003906 114.9894104003906 L 114.9894104003906 1.999992370605469 L 1.999992370605469 1.999992370605469 M -7.62939453125e-06 -7.62939453125e-06 L 116.9894104003906 -7.62939453125e-06 L 116.9894104003906 116.9894104003906 L -7.62939453125e-06 116.9894104003906 L -7.62939453125e-06 -7.62939453125e-06 Z"/></g><g transform="translate(16.935 15.92)"><path class="g" d="M1257.492,343.023a41.585,41.585,0,0,0-39.671,30.216,43.058,43.058,0,0,0,16.738,47.683,40.621,40.621,0,0,0,49.347-2.652l-10.411-12.9a24.611,24.611,0,0,1-29.9,1.607,26.087,26.087,0,0,1-10.142-28.892,25.2,25.2,0,0,1,24.036-18.309Z" transform="translate(-1216.051 -343.023)"/><path class="h" d="M1208.05,418.27a42.5,42.5,0,0,0-27.091-75.247v16.749a25.749,25.749,0,0,1,16.415,45.589Z" transform="translate(-1140.194 -343.023)"/></g></g><g transform="translate(0 120.234)"><g transform="translate(0 0)"><g class="c"><rect class="k" width="116.681" height="116.681"/><rect class="l" x="1" y="1" width="114.681" height="114.681"/></g></g><g transform="translate(22.535 28.829)"><g class="i" transform="translate(35.097)"><rect class="k" width="35.932" height="35.097"/><rect class="l" x="0.5" y="0.5" width="34.932" height="34.097"/></g><g class="j" transform="translate(0 24.234)"><rect class="k" width="35.097" height="35.097"/><rect class="l" x="0.5" y="0.5" width="34.097" height="34.097"/></g><g class="i" transform="translate(52.645 35.097)"><rect class="k" width="18.384" height="24.234"/><rect class="l" x="0.5" y="0.5" width="17.384" height="23.234"/></g><g class="j"><rect class="k" width="19.22" height="24.234"/><rect class="l" x="0.5" y="0.5" width="18.22" height="23.234"/></g><g class="i" transform="translate(35.097 35.097)"><rect class="k" width="17.548" height="10.863"/><rect class="l" x="0.5" y="0.5" width="16.548" height="9.863"/></g><g class="j" transform="translate(19.22 12.535)"><rect class="k" width="15.877" height="11.699"/><rect class="l" x="0.5" y="0.5" width="14.877" height="10.699"/></g><g class="i" transform="translate(35.097 45.96)"><rect class="k" width="17.548" height="13.37"/><rect class="l" x="0.5" y="0.5" width="16.548" height="12.37"/></g><g class="j" transform="translate(19.22)"><rect class="k" width="15.877" height="12.535"/><rect class="l" x="0.5" y="0.5" width="14.877" height="11.535"/></g></g></g><g transform="translate(296.103) rotate(90)"><g class="c"><rect class="k" width="181.123" height="181.503"/><rect class="l" x="1" y="1" width="179.123" height="179.503"/></g><g transform="translate(25.3 36.993)"><g transform="translate(111.091 48.775)"><rect class="h" width="11.43" height="43.018" transform="translate(14.349 15.533)"/><rect class="g" width="11.43" height="58.551" transform="translate(0 0)"/></g><g transform="translate(74.061 0)"><rect class="h" width="11.43" height="78.853" transform="translate(14.349 28.472)"/><rect class="g" width="11.43" height="107.326"/></g><g transform="translate(37.03 32.297)"><rect class="h" width="11.43" height="55.125" transform="translate(14.349 19.904)"/><rect class="g" width="11.43" height="75.03" transform="translate(0 0)"/></g><g transform="translate(0 0)"><rect class="h" width="11.43" height="78.853" transform="translate(14.349 28.472)"/><rect class="g" width="11.43" height="107.326"/></g></g></g><path class="a" d="M5.711,0l5.723,5.723L5.723,11.434,0,5.711Z" transform="translate(365.124 392.387) rotate(-45)"/></svg>