<svg xmlns="http://www.w3.org/2000/svg" width="400.027" height="391.148" viewBox="0 0 400.027 391.148"><defs><style>.a{fill:rgba(238,69,56,0.8);}.b,.c,.f,.h{fill:#fff;}.c{stroke:#eb473f;}.c,.f{stroke-width:2px;}.d{fill:none;}.e,.g{fill:#0067a3;}.f{stroke:#0067a3;}.i,.j{stroke:none;}.j{fill:#0067a3;}</style></defs><g transform="translate(-864.032 -2993.926)"><path class="a" d="M7.453,350.014,148.6,416.362l7.919-7.481L124.709,234.137Z" transform="translate(939.759 2965.74)"/><path class="a" d="M7.453,350.014,148.6,416.362l7.919-7.481L124.709,234.137Z" transform="translate(856.579 2759.789)"/><path class="a" d="M156.521,351.474,12.05,416.362l-7.919-7.481L40.406,236.439Z" transform="translate(1081.249 2801.74)"/><g transform="translate(877.032 2998.928)"><path class="b" d="M5.71,0l5.723,5.723-5.71,5.71L0,5.71Z" transform="translate(82.413 8.083) rotate(-45)"/><path class="b" d="M5.71,0l5.723,5.723-5.71,5.71L0,5.71Z" transform="translate(123.619 8.083) rotate(-45)"/><path class="b" d="M5.71,0l5.723,5.723-5.71,5.71L0,5.71Z" transform="translate(164.826 8.083) rotate(-45)"/><path class="b" d="M5.71,0l5.723,5.723-5.71,5.71L0,5.71Z" transform="translate(206.032 8.083) rotate(-45)"/><path class="b" d="M5.71,0l5.723,5.723-5.71,5.71L0,5.71Z" transform="translate(247.238 8.083) rotate(-45)"/><path class="b" d="M5.71,0l5.723,5.723-5.71,5.71L0,5.71Z" transform="translate(288.445 8.083) rotate(-45)"/><path class="b" d="M5.71,0l5.723,5.723-5.71,5.71L0,5.71Z" transform="translate(329.651 8.083) rotate(-45)"/><path class="b" d="M5.71,0l5.723,5.723-5.71,5.71L0,5.71Z" transform="translate(370.858 8.083) rotate(-45)"/><path class="b" d="M5.71,0l5.723,5.723-5.71,5.71L0,5.71Z" transform="translate(82.413 49.192) rotate(-45)"/><path class="b" d="M5.71,0l5.723,5.723-5.71,5.71L0,5.71Z" transform="translate(123.619 49.192) rotate(-45)"/><path class="b" d="M5.71,0l5.723,5.723-5.71,5.71L0,5.71Z" transform="translate(164.826 49.192) rotate(-45)"/><path class="b" d="M5.71,0l5.723,5.723-5.71,5.71L0,5.71Z" transform="translate(206.032 49.192) rotate(-45)"/><path class="b" d="M5.71,0l5.723,5.723-5.71,5.71L0,5.71Z" transform="translate(247.238 49.192) rotate(-45)"/><path class="b" d="M5.71,0l5.723,5.723-5.71,5.71L0,5.71Z" transform="translate(288.445 49.192) rotate(-45)"/><path class="b" d="M5.71,0l5.723,5.723-5.71,5.71L0,5.71Z" transform="translate(329.651 49.192) rotate(-45)"/><path class="b" d="M5.71,0l5.723,5.723-5.71,5.71L0,5.71Z" transform="translate(370.858 49.192) rotate(-45)"/><path class="b" d="M5.71,0l5.723,5.723-5.71,5.71L0,5.71Z" transform="translate(0 90.301) rotate(-45)"/><path class="b" d="M5.71,0l5.723,5.723-5.71,5.71L0,5.71Z" transform="translate(41.206 90.301) rotate(-45)"/><path class="b" d="M5.71,0l5.723,5.723-5.71,5.71L0,5.71Z" transform="translate(82.413 90.301) rotate(-45)"/><path class="b" d="M5.71,0l5.723,5.723-5.71,5.71L0,5.71Z" transform="translate(123.619 90.301) rotate(-45)"/><path class="b" d="M5.71,0l5.723,5.723-5.71,5.71L0,5.71Z" transform="translate(164.826 90.301) rotate(-45)"/><path class="b" d="M5.71,0l5.723,5.723-5.71,5.71L0,5.71Z" transform="translate(206.032 90.301) rotate(-45)"/><path class="b" d="M5.71,0l5.723,5.723-5.71,5.71L0,5.71Z" transform="translate(247.238 90.301) rotate(-45)"/><path class="b" d="M5.71,0l5.723,5.723-5.71,5.71L0,5.71Z" transform="translate(288.445 90.301) rotate(-45)"/><path class="b" d="M5.71,0l5.723,5.723-5.71,5.71L0,5.71Z" transform="translate(329.651 90.301) rotate(-45)"/><path class="b" d="M5.71,0l5.723,5.723-5.71,5.71L0,5.71Z" transform="translate(370.858 90.301) rotate(-45)"/><path class="b" d="M5.71,0l5.723,5.723-5.71,5.71L0,5.71Z" transform="translate(0 131.409) rotate(-45)"/><path class="b" d="M5.71,0l5.723,5.723-5.71,5.71L0,5.71Z" transform="translate(41.206 131.409) rotate(-45)"/><path class="b" d="M5.71,0l5.723,5.723-5.71,5.71L0,5.71Z" transform="translate(82.413 131.409) rotate(-45)"/><path class="b" d="M5.71,0l5.723,5.723-5.71,5.71L0,5.71Z" transform="translate(123.619 131.409) rotate(-45)"/><path class="b" d="M5.71,0l5.723,5.723-5.71,5.71L0,5.71Z" transform="translate(164.826 131.409) rotate(-45)"/><path class="b" d="M5.71,0l5.723,5.723-5.71,5.71L0,5.71Z" transform="translate(206.032 131.409) rotate(-45)"/><path class="b" d="M5.71,0l5.723,5.723-5.71,5.71L0,5.71Z" transform="translate(247.238 131.409) rotate(-45)"/><path class="b" d="M5.71,0l5.723,5.723-5.71,5.71L0,5.71Z" transform="translate(288.445 131.409) rotate(-45)"/><path class="b" d="M5.71,0l5.723,5.723-5.71,5.71L0,5.71Z" transform="translate(329.651 131.409) rotate(-45)"/><path class="b" d="M5.71,0l5.723,5.723-5.71,5.71L0,5.71Z" transform="translate(370.858 131.409) rotate(-45)"/><path class="b" d="M5.71,0l5.723,5.723-5.71,5.71L0,5.71Z" transform="translate(0 172.518) rotate(-45)"/><path class="b" d="M5.71,0l5.723,5.723-5.71,5.71L0,5.71Z" transform="translate(41.206 172.518) rotate(-45)"/><path class="b" d="M5.71,0l5.723,5.723-5.71,5.71L0,5.71Z" transform="translate(82.413 172.518) rotate(-45)"/><path class="b" d="M5.71,0l5.723,5.723-5.71,5.71L0,5.71Z" transform="translate(123.619 172.518) rotate(-45)"/><path class="b" d="M5.71,0l5.723,5.723-5.71,5.71L0,5.71Z" transform="translate(164.826 172.518) rotate(-45)"/><path class="b" d="M5.71,0l5.723,5.723-5.71,5.71L0,5.71Z" transform="translate(206.032 172.518) rotate(-45)"/><path class="b" d="M5.71,0l5.723,5.723-5.71,5.71L0,5.71Z" transform="translate(247.238 172.518) rotate(-45)"/><path class="b" d="M5.71,0l5.723,5.723-5.71,5.71L0,5.71Z" transform="translate(288.445 172.518) rotate(-45)"/><path class="b" d="M5.71,0l5.723,5.723-5.71,5.71L0,5.71Z" transform="translate(329.651 172.518) rotate(-45)"/><path class="b" d="M5.71,0l5.723,5.723-5.71,5.71L0,5.71Z" transform="translate(370.858 172.518) rotate(-45)"/><path class="b" d="M5.71,0l5.723,5.723-5.71,5.71L0,5.71Z" transform="translate(0 213.627) rotate(-45)"/><path class="b" d="M5.71,0l5.723,5.723-5.71,5.71L0,5.71Z" transform="translate(41.206 213.627) rotate(-45)"/><path class="b" d="M5.71,0l5.723,5.723-5.71,5.71L0,5.71Z" transform="translate(82.413 213.627) rotate(-45)"/><path class="b" d="M5.71,0l5.723,5.723-5.71,5.71L0,5.71Z" transform="translate(123.619 213.627) rotate(-45)"/><path class="b" d="M5.71,0l5.723,5.723-5.71,5.71L0,5.71Z" transform="translate(164.826 213.627) rotate(-45)"/><path class="b" d="M5.71,0l5.723,5.723-5.71,5.71L0,5.71Z" transform="translate(206.032 213.627) rotate(-45)"/><path class="b" d="M5.71,0l5.723,5.723-5.71,5.71L0,5.71Z" transform="translate(247.238 213.627) rotate(-45)"/><path class="b" d="M5.71,0l5.723,5.723-5.71,5.71L0,5.71Z" transform="translate(288.446 213.627) rotate(-45)"/><path class="b" d="M5.71,0l5.723,5.723-5.71,5.71L0,5.71Z" transform="translate(329.651 213.627) rotate(-45)"/><path class="b" d="M5.71,0l5.723,5.723-5.71,5.71L0,5.71Z" transform="translate(370.858 213.627) rotate(-45)"/><path class="b" d="M5.71,0l5.723,5.723-5.71,5.71L0,5.71Z" transform="translate(0 254.736) rotate(-45)"/><path class="b" d="M5.71,0l5.723,5.723-5.71,5.71L0,5.71Z" transform="translate(41.206 254.736) rotate(-45)"/><path class="b" d="M5.71,0l5.723,5.723-5.71,5.71L0,5.71Z" transform="translate(82.413 254.736) rotate(-45)"/><path class="b" d="M5.71,0l5.723,5.723-5.71,5.71L0,5.71Z" transform="translate(123.619 254.736) rotate(-45)"/><path class="b" d="M5.71,0l5.723,5.723-5.71,5.71L0,5.71Z" transform="translate(164.826 254.736) rotate(-45)"/><path class="b" d="M5.71,0l5.723,5.723-5.71,5.71L0,5.71Z" transform="translate(206.032 254.736) rotate(-45)"/><path class="b" d="M5.71,0l5.723,5.723-5.71,5.71L0,5.71Z" transform="translate(247.238 254.736) rotate(-45)"/><path class="b" d="M5.71,0l5.723,5.723-5.71,5.71L0,5.71Z" transform="translate(288.445 254.736) rotate(-45)"/><path class="b" d="M5.71,0l5.723,5.723-5.71,5.71L0,5.71Z" transform="translate(329.651 254.736) rotate(-45)"/><path class="b" d="M5.71,0l5.723,5.723-5.71,5.71L0,5.71Z" transform="translate(370.858 254.736) rotate(-45)"/><path class="b" d="M5.71,0l5.723,5.723-5.71,5.71L0,5.71Z" transform="translate(0 295.845) rotate(-45)"/><path class="b" d="M5.71,0l5.723,5.723-5.71,5.71L0,5.71Z" transform="translate(41.206 295.845) rotate(-45)"/><path class="b" d="M5.71,0l5.723,5.723-5.71,5.71L0,5.71Z" transform="translate(82.413 295.845) rotate(-45)"/><path class="b" d="M5.71,0l5.723,5.723-5.71,5.71L0,5.71Z" transform="translate(123.619 295.845) rotate(-45)"/><path class="b" d="M5.71,0l5.723,5.723-5.71,5.71L0,5.71Z" transform="translate(164.826 295.845) rotate(-45)"/><path class="b" d="M5.71,0l5.723,5.723-5.71,5.71L0,5.71Z" transform="translate(206.032 295.845) rotate(-45)"/><path class="b" d="M5.71,0l5.723,5.723-5.71,5.71L0,5.71Z" transform="translate(247.238 295.845) rotate(-45)"/><path class="b" d="M5.71,0l5.723,5.723-5.71,5.71L0,5.71Z" transform="translate(329.651 295.845) rotate(-45)"/><path class="b" d="M5.71,0l5.723,5.723-5.71,5.71L0,5.71Z" transform="translate(370.858 295.845) rotate(-45)"/><path class="b" d="M5.71,0l5.723,5.723-5.71,5.71L0,5.71Z" transform="translate(0 336.953) rotate(-45)"/><path class="b" d="M5.71,0l5.723,5.723-5.71,5.71L0,5.71Z" transform="translate(41.206 336.953) rotate(-45)"/><path class="b" d="M5.71,0l5.723,5.723-5.71,5.71L0,5.71Z" transform="translate(82.413 336.953) rotate(-45)"/><path class="b" d="M5.71,0l5.723,5.723-5.71,5.71L0,5.71Z" transform="translate(123.619 336.953) rotate(-45)"/><path class="b" d="M5.71,0l5.723,5.723-5.71,5.71L0,5.71Z" transform="translate(164.826 336.953) rotate(-45)"/><path class="b" d="M5.71,0l5.723,5.723-5.71,5.71L0,5.71Z" transform="translate(206.032 336.953) rotate(-45)"/><path class="b" d="M5.71,0l5.723,5.723-5.71,5.71L0,5.71Z" transform="translate(247.238 336.953) rotate(-45)"/><path class="b" d="M5.71,0l5.723,5.723-5.71,5.71L0,5.71Z" transform="translate(288.445 336.953) rotate(-45)"/><path class="b" d="M5.71,0l5.723,5.723-5.71,5.71L0,5.71Z" transform="translate(329.651 336.953) rotate(-45)"/><path class="b" d="M5.71,0l5.723,5.723-5.71,5.71L0,5.71Z" transform="translate(370.858 336.953) rotate(-45)"/><path class="b" d="M5.71,0l5.723,5.723-5.71,5.71L0,5.71Z" transform="translate(0 378.062) rotate(-45)"/><path class="b" d="M5.71,0l5.723,5.723-5.71,5.71L0,5.71Z" transform="translate(41.206 378.062) rotate(-45)"/><path class="b" d="M5.71,0l5.723,5.723-5.71,5.71L0,5.71Z" transform="translate(82.413 378.062) rotate(-45)"/><path class="b" d="M5.71,0l5.723,5.723-5.71,5.71L0,5.71Z" transform="translate(123.619 378.062) rotate(-45)"/><path class="b" d="M5.71,0l5.723,5.723-5.71,5.71L0,5.71Z" transform="translate(164.826 378.062) rotate(-45)"/><path class="b" d="M5.71,0l5.723,5.723-5.71,5.71L0,5.71Z" transform="translate(206.032 378.062) rotate(-45)"/><path class="b" d="M5.71,0l5.723,5.723-5.71,5.71L0,5.71Z" transform="translate(247.238 378.062) rotate(-45)"/><path class="b" d="M5.71,0l5.723,5.723-5.71,5.71L0,5.71Z" transform="translate(288.445 378.062) rotate(-45)"/><path class="b" d="M5.71,0l5.723,5.723-5.71,5.71L0,5.71Z" transform="translate(329.651 378.062) rotate(-45)"/><path class="b" d="M5.71,0l5.723,5.723-5.71,5.71L0,5.71Z" transform="translate(370.858 378.062) rotate(-45)"/><path class="b" d="M5.71,0l5.723,5.723-5.71,5.71L0,5.71Z" transform="translate(288.446 295.845) rotate(-45)"/></g><path class="b" d="M5.71,0l5.723,5.723-5.71,5.71L0,5.71Z" transform="translate(1206.685 3335.881) rotate(-45)"/><g transform="translate(-44.571 -749.398)"><g transform="translate(1165.66 3787.66)"><g class="c"><rect class="i" width="116.681" height="116.681"/><rect class="d" x="1" y="1" width="114.681" height="114.681"/></g></g><g transform="translate(24542 19035)"><g transform="translate(-23359 -15230)"><rect class="d" width="82" height="82"/><g transform="translate(0.962 17.938)"><path class="e" d="M79.494,30.078C78.776,29.114,61.651,6.5,40.029,6.5S1.284,29.114.563,30.078l-.571.766.571.766c.72.963,17.843,23.578,39.465,23.578S78.776,32.573,79.494,31.61l.571-.766ZM40.029,52.625c-18.168,0-33.61-17.832-36.805-21.781C6.419,26.895,21.86,9.062,40.029,9.062S73.641,26.895,76.834,30.844C73.641,34.793,58.2,52.625,40.029,52.625Z" transform="translate(0.008 -6.5)"/><path class="e" d="M25.772,9.5A16.656,16.656,0,1,0,42.428,26.156,16.675,16.675,0,0,0,25.772,9.5Zm0,30.75A14.094,14.094,0,1,1,39.866,26.156,14.109,14.109,0,0,1,25.772,40.25Z" transform="translate(14.264 -1.813)"/><path class="e" d="M19.522,13.5a6.406,6.406,0,1,0,6.406,6.406A6.414,6.414,0,0,0,19.522,13.5Zm0,10.25a3.844,3.844,0,1,1,3.844-3.844A3.848,3.848,0,0,1,19.522,23.75Z" transform="translate(20.514 4.438)"/></g></g></g></g><g transform="translate(-11.967 -889.074)"><g transform="translate(61 89)"><g transform="translate(815 3794)"><g class="c"><rect class="i" width="116.681" height="116.681"/><rect class="d" x="1" y="1" width="114.681" height="114.681"/></g></g></g><g transform="translate(23976 19130)"><g transform="translate(-23083 -15230)"><rect class="d" width="82" height="82"/><g transform="translate(5.125 5.918)"><g transform="translate(0 24.046)"><path class="e" d="M1.616,42.156h20.5v-20.5H1.616ZM4.179,24.222H19.553V39.594H4.179Z" transform="translate(-1.616 3.966)"/><path class="e" d="M11.616,46.844h20.5V18.659h-20.5Zm2.562-25.622H29.553v23.06H14.178Z" transform="translate(14.009 -0.722)"/><path class="e" d="M21.616,11.659V57.781h20.5V11.659Zm17.938,43.56H24.178v-41H39.554Z" transform="translate(29.634 -11.659)"/></g><g transform="translate(1.466)"><path class="e" d="M59.662,4.969c-20.5,21.6-46.7,23.67-54.786,23.762-1.545.018-2.445-.036-2.5-.038l-.187,2.555c.051,0,.769.049,2.032.049,7.7,0,35.76-1.7,57.492-24.772L60.7,5.753Z" transform="translate(-2.188 1.934)"/><path class="e" d="M34.961,2.275,22.568,4.066l.183,1.267L22.933,6.6l1.25-.18,6.22-.9.761-.11,1.628-.235.031.215.252,1.747.975,6.766.185,1.286L35.5,15.01l1.269-.183Z" transform="translate(29.656 -2.275)"/></g></g></g></g></g><g transform="translate(132 -595.398)"><g transform="translate(815 3794)"><g class="c"><rect class="i" width="116.681" height="116.681"/><rect class="d" x="1" y="1" width="114.681" height="114.681"/></g></g><g class="f" transform="translate(836 3838.547)"><rect class="i" width="75.387" height="51.077"/><rect class="d" x="1" y="1" width="73.387" height="49.077"/></g><g class="g" transform="translate(911.387 3871.859) rotate(180)"><path class="i" d="M 72.74510955810547 32.31095886230469 L 2.641669273376465 32.31095886230469 L 37.69338226318359 1.334535002708435 L 72.74510955810547 32.31095886230469 Z"/><path class="j" d="M 37.69338226318359 2.669076919555664 L 5.283332824707031 31.31095886230469 L 70.10341644287109 31.31095886230469 L 37.69338226318359 2.669076919555664 M 37.69338226318359 3.814697265625e-06 L 75.38675689697266 33.31095886230469 L -7.62939453125e-06 33.31095886230469 L 37.69338226318359 3.814697265625e-06 Z"/></g><g transform="translate(848.896 3815)"><g class="h" transform="translate(0 -6)"><path class="i" d="M 24.07582473754883 61.53974914550781 L 1.000000357627869 41.42141342163086 L 1.000000357627869 6.999996185302734 L 47.71540069580078 6.999996185302734 L 47.71540069580078 41.414306640625 L 24.07582473754883 61.53974914550781 Z"/><path class="j" d="M 2 8.000003814697266 L 2 40.96656036376953 L 24.08358001708984 60.21982955932617 L 46.71540069580078 40.95232391357422 L 46.71540069580078 8.000003814697266 L 2 8.000003814697266 M 0 6.000003814697266 L 48.71540069580078 6.000003814697266 L 48.71540069580078 41.87626266479492 L 24.06805992126465 62.85967254638672 L 0 41.87626266479492 L 0 6.000003814697266 Z"/></g><rect class="e" width="10.484" height="2.691" transform="translate(8.628 11.939)"/><rect class="e" width="31.462" height="2.691" transform="translate(8.628 20.441)"/><rect class="e" width="31.462" height="2.691" transform="translate(8.628 28.943)"/></g></g></g></svg>