<svg xmlns="http://www.w3.org/2000/svg" xmlns:xlink="http://www.w3.org/1999/xlink" width="291" height="274" viewBox="0 0 291 274"><defs><style>.a{fill:none;}.b{opacity:0.2;clip-path:url(#a);}.c{fill:#f9e600;}</style><clipPath id="a"><rect class="a" width="291" height="274"/></clipPath></defs><g class="b"><g transform="translate(-37 -124)"><circle class="c" cx="4.5" cy="4.5" r="4.5" transform="translate(37 124)"/></g><g transform="translate(22 -124)"><circle class="c" cx="4.5" cy="4.5" r="4.5" transform="translate(37 124)"/></g><g transform="translate(81 -124)"><circle class="c" cx="4.5" cy="4.5" r="4.5" transform="translate(37 124)"/></g><g transform="translate(140 -124)"><circle class="c" cx="4.5" cy="4.5" r="4.5" transform="translate(37 124)"/></g><g transform="translate(199 -124)"><circle class="c" cx="4.5" cy="4.5" r="4.5" transform="translate(37 124)"/></g><g transform="translate(-37 -65)"><circle class="c" cx="4.5" cy="4.5" r="4.5" transform="translate(37 124)"/></g><g transform="translate(22 -65)"><circle class="c" cx="4.5" cy="4.5" r="4.5" transform="translate(37 124)"/></g><g transform="translate(81 -65)"><circle class="c" cx="4.5" cy="4.5" r="4.5" transform="translate(37 124)"/></g><g transform="translate(140 -65)"><circle class="c" cx="4.5" cy="4.5" r="4.5" transform="translate(37 124)"/></g><g transform="translate(199 -65)"><circle class="c" cx="4.5" cy="4.5" r="4.5" transform="translate(37 124)"/></g><g transform="translate(-37 -6)"><circle class="c" cx="4.5" cy="4.5" r="4.5" transform="translate(37 124)"/></g><g transform="translate(22 -6)"><circle class="c" cx="4.5" cy="4.5" r="4.5" transform="translate(37 124)"/></g><g transform="translate(81 -6)"><circle class="c" cx="4.5" cy="4.5" r="4.5" transform="translate(37 124)"/></g><g transform="translate(140 -6)"><circle class="c" cx="4.5" cy="4.5" r="4.5" transform="translate(37 124)"/></g><g transform="translate(199 -6)"><circle class="c" cx="4.5" cy="4.5" r="4.5" transform="translate(37 124)"/></g><g transform="translate(-37 53)"><circle class="c" cx="4.5" cy="4.5" r="4.5" transform="translate(37 124)"/></g><g transform="translate(22 53)"><circle class="c" cx="4.5" cy="4.5" r="4.5" transform="translate(37 124)"/></g><g transform="translate(81 53)"><circle class="c" cx="4.5" cy="4.5" r="4.5" transform="translate(37 124)"/></g><g transform="translate(140 53)"><circle class="c" cx="4.5" cy="4.5" r="4.5" transform="translate(37 124)"/></g><g transform="translate(199 53)"><circle class="c" cx="4.5" cy="4.5" r="4.5" transform="translate(37 124)"/></g><g transform="translate(-37 112)"><circle class="c" cx="4.5" cy="4.5" r="4.5" transform="translate(37 124)"/></g><g transform="translate(22 112)"><circle class="c" cx="4.5" cy="4.5" r="4.5" transform="translate(37 124)"/></g><g transform="translate(81 112)"><circle class="c" cx="4.5" cy="4.5" r="4.5" transform="translate(37 124)"/></g><g transform="translate(140 112)"><circle class="c" cx="4.5" cy="4.5" r="4.5" transform="translate(37 124)"/></g><g transform="translate(199 112)"><circle class="c" cx="4.5" cy="4.5" r="4.5" transform="translate(37 124)"/></g></g></svg>