<svg xmlns="http://www.w3.org/2000/svg" xmlns:xlink="http://www.w3.org/1999/xlink" width="62" height="62" viewBox="0 0 62 62"><defs><style>.a{fill:transparent;}.b{fill:#dfdfdf;}.c{fill:none;}.d{filter:url(#a);}</style><filter id="a" x="0" y="0" width="62" height="62" filterUnits="userSpaceOnUse"><feOffset dy="3" input="SourceAlpha"/><feGaussianBlur stdDeviation="3" result="b"/><feFlood flood-opacity="0.161"/><feComposite operator="in" in2="b"/><feComposite in="SourceGraphic"/></filter></defs><g transform="translate(9 6)"><g class="d" transform="matrix(1, 0, 0, 1, -9, -6)"><path class="a" d="M0,0H42a2,2,0,0,1,2,2V42a2,2,0,0,1-2,2H0a0,0,0,0,1,0,0V0A0,0,0,0,1,0,0Z" transform="translate(9 6)"/></g><g transform="translate(7.674 8)"><path class="b" d="M17.9,4A7.9,7.9,0,0,0,10,11.9c0,5.925,7.9,14.672,7.9,14.672s7.9-8.747,7.9-14.672A7.9,7.9,0,0,0,17.9,4Zm0,10.722A2.821,2.821,0,1,1,20.722,11.9,2.822,2.822,0,0,1,17.9,14.722Z" transform="translate(-4.357 -1.743)"/><path class="c" d="M0,0H27.086V27.086H0Z"/></g></g></svg>
