<svg xmlns="http://www.w3.org/2000/svg" xmlns:xlink="http://www.w3.org/1999/xlink" width="390" height="350" viewBox="0 0 390 350"><defs><style>.a,.k,.l{fill:#fff;}.b{fill:#0067a3;}.c,.d,.f,.h,.i,.n{fill:none;}.c{stroke:#666;}.d,.n{stroke:#707070;}.d{opacity:0.2;}.d,.e,.k,.l{isolation:isolate;}.e{fill:#707070;font-size:11px;}.e,.k{font-family:Poppins-Regular, Poppins;}.f,.h,.i{stroke:#fff;}.f{stroke-dasharray:2 2;}.g{opacity:0.5;}.i{stroke-width:5px;}.j{fill:#2a2a2c;opacity:0.8;}.k,.l{font-size:14px;}.l{font-family:Poppins-SemiBold, Poppins;font-weight:600;}.m{fill:#666;font-size:10px;font-family:Poppins-Medium, Poppins;font-weight:500;}.n{stroke-width:2px;stroke-dasharray:2;}.o{filter:url(#a);}</style><filter id="a" x="59.051" y="45.717" width="148.988" height="67" filterUnits="userSpaceOnUse"><feOffset dy="3" input="SourceAlpha"/><feGaussianBlur stdDeviation="3" result="b"/><feFlood flood-opacity="0.161"/><feComposite operator="in" in2="b"/><feComposite in="SourceGraphic"/></filter></defs><rect class="a" width="390" height="350"/><g transform="translate(20)"><g transform="translate(-2.789 -1.711)"><g transform="translate(0 10.712)"><g transform="translate(38.143 10.519)"><rect class="b" width="43.183" height="143.011" transform="translate(5.813 164.9)"/><rect class="b" width="43.183" height="276.85" transform="translate(55.639 31.062)"/><rect class="b" width="43.183" height="30.02" transform="translate(105.467 277.891)"/><rect class="b" width="43.183" height="25.85" transform="translate(155.294 282.061)"/><rect class="b" width="43.183" height="24.183" transform="translate(205.12 283.729)"/><rect class="b" width="43.183" height="21.68" transform="translate(254.947 286.231)"/><line class="c" x1="310.586" transform="translate(0 307.704)"/><line class="d" x1="310.586" transform="translate(0 256.42)"/><line class="d" x1="310.586" transform="translate(0 205.136)"/><line class="d" x1="310.586" transform="translate(0 153.851)"/><line class="d" x1="310.586" transform="translate(0 102.568)"/><line class="d" x1="310.586" transform="translate(0 51.284)"/><line class="d" x1="310.586" transform="translate(0)"/></g><text class="e" transform="translate(21.789 324.336)"><tspan x="0" y="0">0</tspan></text><text class="e" transform="translate(9.789 274.449)"><tspan x="0" y="0">10%</tspan></text><text class="e" transform="translate(6.789 222.225)"><tspan x="0" y="0">20%</tspan></text><text class="e" transform="translate(6.789 171.338)"><tspan x="0" y="0">30%</tspan></text><text class="e" transform="translate(6.789 119.111)"><tspan x="0" y="0">40%</tspan></text><g transform="translate(6.789 52.225)"><text class="e" transform="translate(0 16)"><tspan x="0" y="0">50%</tspan></text></g><g transform="translate(6.789)"><text class="e" transform="translate(0 16)"><tspan x="0" y="0">60%</tspan></text></g><g transform="translate(43.957 280.413)"><line class="f" x2="43.183"/><line class="f" x2="43.183" transform="translate(49.827 5.877)"/><line class="f" x2="43.183" transform="translate(99.653 11.754)"/><line class="f" x2="43.183" transform="translate(149.48 17.629)"/><line class="f" x2="43.183" transform="translate(199.307 23.506)"/><line class="f" x2="43.183" transform="translate(249.133 29.381)"/></g></g><g transform="translate(97.199 90.789)"><g class="g"><circle class="h" cx="19.135" cy="19.135" r="19.135"/><circle class="i" cx="17.141" cy="17.141" r="17.141" transform="translate(1.993 1.993)"/></g><g class="g" transform="translate(11.162 11.16)"><circle class="a" cx="7.973" cy="7.973" r="7.973"/></g></g><g transform="translate(50.839 53.428)"><g class="o" transform="matrix(1, 0, 0, 1, -68.05, -51.72)"><path class="j" d="M4-23H126.988a4,4,0,0,1,4,4V22a4,4,0,0,1-4,4H4a4,4,0,0,1-4-4V-19A4,4,0,0,1,4-23Z" transform="translate(68.05 74.72)"/></g><g transform="translate(-439.05 -624.498)"><g transform="translate(-208.25 -270.834)"><g transform="translate(0 -20)"><text class="k" transform="translate(667.3 946.333)"><tspan x="0" y="0">15-24</tspan></text></g></g><g transform="translate(414.049 630.498)"><text class="l" transform="translate(135.99 25)"><tspan x="-29.638" y="0">55%</tspan></text></g></g></g></g><g transform="translate(230.44)"><text class="m" transform="translate(27.5 11)"><tspan x="0" y="0">National average</tspan></text><line class="n" x2="18" transform="translate(0 7.5)"/></g></g></svg>