<svg xmlns="http://www.w3.org/2000/svg" width="140" height="140" viewBox="0 0 140 140"><defs><style>.a{fill:#0067a3;}.b{fill:none;}.c{fill:#fff;}</style></defs><g transform="translate(23388 15259)"><circle class="a" cx="70" cy="70" r="70" transform="translate(-23388 -15259)"/><g transform="translate(-23359 -15230)"><rect class="b" width="82" height="82"/><g transform="translate(0.962 17.938)"><path class="c" d="M79.494,30.078C78.776,29.114,61.651,6.5,40.029,6.5S1.284,29.114.563,30.078l-.571.766.571.766c.72.963,17.843,23.578,39.465,23.578S78.776,32.573,79.494,31.61l.571-.766ZM40.029,52.625c-18.168,0-33.61-17.832-36.805-21.781C6.419,26.895,21.86,9.062,40.029,9.062S73.641,26.895,76.834,30.844C73.641,34.793,58.2,52.625,40.029,52.625Z" transform="translate(0.008 -6.5)"/><path class="c" d="M25.772,9.5A16.656,16.656,0,1,0,42.428,26.156,16.675,16.675,0,0,0,25.772,9.5Zm0,30.75A14.094,14.094,0,1,1,39.866,26.156,14.109,14.109,0,0,1,25.772,40.25Z" transform="translate(14.264 -1.813)"/><path class="c" d="M19.522,13.5a6.406,6.406,0,1,0,6.406,6.406A6.414,6.414,0,0,0,19.522,13.5Zm0,10.25a3.844,3.844,0,1,1,3.844-3.844A3.848,3.848,0,0,1,19.522,23.75Z" transform="translate(20.514 4.438)"/></g></g></g></svg>