<svg xmlns="http://www.w3.org/2000/svg" width="140" height="140" viewBox="0 0 140 140"><defs><style>.a{fill:#fff;}.b{fill:none;}.c{fill:#0067a3;}</style></defs><g transform="translate(22836 15259)"><circle class="a" cx="70" cy="70" r="70" transform="translate(-22836 -15259)"/><g transform="translate(-22807 -15230)"><rect class="b" width="82" height="82"/><g transform="translate(0.527 7.69)"><path class="c" d="M59.548,23.451l-2.924-.482a20.321,20.321,0,0,0-1.4-3.367l1.689-2.442.008-.01a4.1,4.1,0,0,0-.5-5.212l-2.2-2.2a4.094,4.094,0,0,0-5.263-.469l-2.4,1.663A20.424,20.424,0,0,0,43.2,9.5l-.51-2.893A4.082,4.082,0,0,0,38.659,3.2H35.525a4.091,4.091,0,0,0-4.041,3.413l-.492,2.934a20.477,20.477,0,0,0-3.37,1.4l-2.4-1.661a4.088,4.088,0,0,0-5.268.459l-2.2,2.2a4.082,4.082,0,0,0-.469,5.261l1.663,2.4a20.5,20.5,0,0,0-1.43,3.349l-2.9.51a4.085,4.085,0,0,0-3.406,4.046v3.116a4.09,4.09,0,0,0,3.418,4.051l2.919.471a20.528,20.528,0,0,0,1.4,3.362l-1.663,2.4a4.088,4.088,0,0,0,.461,5.269l2.2,2.2a4.08,4.08,0,0,0,5.263.469l2.4-1.66a20.214,20.214,0,0,0,3.349,1.435l.513,2.9a4.082,4.082,0,0,0,4.036,3.408h3.144a4.085,4.085,0,0,0,4.041-3.411l.492-2.934a20.267,20.267,0,0,0,3.37-1.4l2.4,1.663a4.087,4.087,0,0,0,5.269-.459l2.2-2.2a4.089,4.089,0,0,0,.469-5.261l-1.666-2.4a20.19,20.19,0,0,0,1.43-3.349l2.9-.51a4.085,4.085,0,0,0,3.406-4.046V27.505A4.091,4.091,0,0,0,59.548,23.451Zm.851,7.172a1.533,1.533,0,0,1-1.284,1.517l-4.469.787-.218.776a17.828,17.828,0,0,1-1.809,4.238l-.42.707,2.593,3.744a1.538,1.538,0,0,1-.174,1.981l-2.206,2.206a1.537,1.537,0,0,1-1.989.167L46.7,44.167l-.7.4a17.69,17.69,0,0,1-4.269,1.768l-.794.215-.761,4.536a1.532,1.532,0,0,1-1.52,1.276H35.512A1.53,1.53,0,0,1,34,51.085l-.787-4.472-.774-.218A17.642,17.642,0,0,1,28.2,44.577l-.707-.418-3.746,2.593a1.535,1.535,0,0,1-1.978-.177l-2.209-2.209a1.533,1.533,0,0,1-.167-1.983l2.583-3.728-.407-.7A17.75,17.75,0,0,1,19.8,33.681l-.215-.8-4.525-.728a1.536,1.536,0,0,1-1.276-1.522V27.51a1.533,1.533,0,0,1,1.281-1.52l4.472-.787.218-.774a17.768,17.768,0,0,1,1.812-4.243l.418-.7-2.593-3.744a1.532,1.532,0,0,1,.177-1.981l2.2-2.206a1.541,1.541,0,0,1,1.986-.167l3.728,2.58.7-.407a17.9,17.9,0,0,1,4.272-1.768l.794-.213.761-4.536a1.536,1.536,0,0,1,1.52-1.279h3.126a1.533,1.533,0,0,1,1.514,1.284l.787,4.472.776.218a17.862,17.862,0,0,1,4.241,1.809l.707.418,3.744-2.593a1.538,1.538,0,0,1,1.981.177l2.209,2.209a1.538,1.538,0,0,1,.19,1.953l-2.6,3.754.4.7a17.887,17.887,0,0,1,1.771,4.269l.213.8,4.523.746A1.534,1.534,0,0,1,60.4,27.5Z" transform="translate(17.98 -3.2)"/><path class="c" d="M28.994,8.375a12.6,12.6,0,1,0,12.6,12.6A12.611,12.611,0,0,0,28.994,8.375Zm0,2.563A10.035,10.035,0,1,1,18.96,20.972,10.047,10.047,0,0,1,28.994,10.938Z" transform="translate(26.074 4.886)"/><path class="c" d="M31.816,28.512l-1.635-.272a13.663,13.663,0,0,0-.73-1.758l.966-1.379a3.137,3.137,0,0,0-.387-3.969l-1.443-1.443a3.131,3.131,0,0,0-2.2-.915h-.008a3.133,3.133,0,0,0-1.783.559l-1.343.93a13.383,13.383,0,0,0-1.763-.759l-.279-1.62A3.1,3.1,0,0,0,18.147,15.3H16.1a3.122,3.122,0,0,0-3.075,2.593l-.272,1.645a13.713,13.713,0,0,0-1.76.733l-1.348-.935a3.125,3.125,0,0,0-1.786-.561H7.854a3.11,3.11,0,0,0-2.2.915L4.225,21.117a3.1,3.1,0,0,0-.364,4.005l.925,1.338a13.751,13.751,0,0,0-.746,1.758L2.429,28.5A3.118,3.118,0,0,0-.177,31.58v2.027a3.116,3.116,0,0,0,2.609,3.08l1.63.272a14.087,14.087,0,0,0,.733,1.76l-.917,1.338a3.088,3.088,0,0,0,.341,4.008L5.65,45.489a3.192,3.192,0,0,0,4,.359l1.335-.928a14,14,0,0,0,1.755.759l.29,1.635a3.121,3.121,0,0,0,3.078,2.58h2.037a3.1,3.1,0,0,0,3.065-2.583l.279-1.648a13.976,13.976,0,0,0,1.763-.735l1.34.93a2.936,2.936,0,0,0,1.8.571,3.154,3.154,0,0,0,2.2-.917l1.43-1.43a3.1,3.1,0,0,0,.364-3.995l-.935-1.348a13.276,13.276,0,0,0,.751-1.758l1.619-.282a3.121,3.121,0,0,0,2.6-3.083v-2.03A3.119,3.119,0,0,0,31.816,28.512Zm-3.623,6.222-.218.779a10.793,10.793,0,0,1-1.13,2.65l-.42.707,1.86,2.683a.554.554,0,0,1-.067.712l-1.432,1.427a.6.6,0,0,1-.407.174c-.077.033-.213-.033-.315-.105L23.4,41.912l-.7.407a11.205,11.205,0,0,1-2.673,1.112l-.789.215-.551,3.231a.545.545,0,0,1-.538.454H16.105a.566.566,0,0,1-.556-.464l-.559-3.185-.769-.22a11.4,11.4,0,0,1-2.66-1.151l-.71-.423L8.177,43.751a.56.56,0,0,1-.712-.072L6.022,42.245a.548.548,0,0,1-.046-.72L7.8,38.862l-.4-.7a11.475,11.475,0,0,1-1.112-2.68L6.076,34.7l-3.221-.538a.554.554,0,0,1-.469-.551V31.58a.561.561,0,0,1,.477-.553l3.188-.559.218-.779A11.039,11.039,0,0,1,7.4,27.031l.415-.707L5.96,23.651a.552.552,0,0,1,.069-.715L7.472,21.5a.536.536,0,0,1,.387-.159h0a.548.548,0,0,1,.325.105l2.662,1.84.7-.4a11.412,11.412,0,0,1,2.675-1.11l.8-.215.53-3.229a.563.563,0,0,1,.553-.464h2.04a.543.543,0,0,1,.538.459l.553,3.183.776.22a10.947,10.947,0,0,1,2.655,1.151l.71.423,2.673-1.853a.59.59,0,0,1,.333-.105c.044.049.29.059.392.164l1.445,1.445a.57.57,0,0,1,.085.7l-1.873,2.675.407.7a11.242,11.242,0,0,1,1.11,2.675l.215.794,3.229.538a.558.558,0,0,1,.469.548v2.027a.564.564,0,0,1-.477.556Z" transform="translate(0.177 15.706)"/><path class="c" d="M9.424,20.282H9.419a4.925,4.925,0,1,0,0,9.85h.005a4.925,4.925,0,0,0,0-9.85ZM7.057,25.207a2.368,2.368,0,0,1,2.363-2.363h0a2.377,2.377,0,0,1,2.36,2.365,2.362,2.362,0,0,1-2.36,2.36h0a2.358,2.358,0,0,1-2.363-2.363Z" transform="translate(7.475 23.491)"/></g></g></g></svg>