<svg xmlns="http://www.w3.org/2000/svg" width="140" height="140" viewBox="0 0 140 140"><defs><style>.a{fill:#fff;}.b,.d{fill:none;}.c{fill:#0067a3;}.d{stroke:#0067a3;stroke-linecap:round;stroke-linejoin:round;stroke-width:3px;stroke-dasharray:0 8;}</style></defs><g transform="translate(22560 15259)"><circle class="a" cx="70" cy="70" r="70" transform="translate(-22560 -15259)"/><g transform="translate(-22531 -15230)"><rect class="b" width="80.772" height="80.772" transform="translate(0 1.363)"/><g transform="translate(0)"><path class="b" d="M-60.72,101.659l-6.621-6.621a.761.761,0,0,1-.39-.39.73.73,0,0,1,.459-.925l.016-.005.032-.011a.659.659,0,0,1,.187-.04l.026-.026a4.385,4.385,0,0,0,2.939-1.289,4.48,4.48,0,0,0,.05-6.336,4.466,4.466,0,0,0-3.195-1.339,4.466,4.466,0,0,0-3.142,1.289,4.479,4.479,0,0,0-1.334,2.994.976.976,0,0,1-.029.229.729.729,0,0,1-.7.519.7.7,0,0,1-.206-.032.728.728,0,0,1-.44-.364l-5.5-5.5,0,.005-4.323,4.323a7.113,7.113,0,0,1,3.289,5.585,7.126,7.126,0,0,1-6.684,7.525c-.142.008-.285.013-.424.013a7.1,7.1,0,0,1-6.007-3.318l-4.541,4.539,16.521,16.521a1.878,1.878,0,0,0,1.331.551,1.876,1.876,0,0,0,1.328-.551Z" transform="translate(119.649 -41.691)"/><path class="c" d="M-44.957,125.937l-4.589-4.589a7.1,7.1,0,0,0,1.241-1,7.118,7.118,0,0,0,.061-10.042,7.067,7.067,0,0,0-5.074-2.127,7.072,7.072,0,0,0-4.989,2.045,7.184,7.184,0,0,0-1.049,1.3l-3.455-3.455,4.71-4.71a2.634,2.634,0,0,0,.691-2.514,2.639,2.639,0,0,0-1.808-1.879,3.366,3.366,0,0,1-1.4-.82,3.291,3.291,0,0,1-.005-4.641,3.26,3.26,0,0,1,2.338-.975,3.28,3.28,0,0,1,2.317.954,3.293,3.293,0,0,1,.838,1.4,2.628,2.628,0,0,0,1.879,1.8,2.587,2.587,0,0,0,.648.082,2.634,2.634,0,0,0,1.863-.772l5.777-5.777a2.638,2.638,0,0,0,0-3.727L-62.31,69.154A4.5,4.5,0,0,0-65.5,67.833a4.489,4.489,0,0,0-3.184,1.313L-86.048,86.5a2.584,2.584,0,0,0-.414.622,2.608,2.608,0,0,0-.625.416l-17.346,17.348a4.532,4.532,0,0,0,0,6.392l17.351,17.348a2.567,2.567,0,0,0,.625.419,2.533,2.533,0,0,0,.409.617l17.351,17.348a4.5,4.5,0,0,0,3.194,1.323,4.5,4.5,0,0,0,3.189-1.318l17.354-17.354a2.633,2.633,0,0,0,.772-1.863A2.629,2.629,0,0,0-44.957,125.937Zm-21.874,19.212-16.521-16.521,4.541-4.539a7.1,7.1,0,0,0,6.007,3.318c.14,0,.282-.005.424-.013a7.126,7.126,0,0,0,6.684-7.525,7.113,7.113,0,0,0-3.289-5.585l4.323-4.323,0-.005,5.5,5.5a.728.728,0,0,0,.44.364.7.7,0,0,0,.206.032.729.729,0,0,0,.7-.519.977.977,0,0,0,.029-.229,4.479,4.479,0,0,1,1.334-2.994,4.466,4.466,0,0,1,3.142-1.289,4.466,4.466,0,0,1,3.195,1.339,4.48,4.48,0,0,1-.05,6.336,4.385,4.385,0,0,1-2.939,1.289l-.026.026a.659.659,0,0,0-.187.04l-.032.011-.016.005a.73.73,0,0,0-.459.925.761.761,0,0,0,.39.39l6.621,6.621-17.351,17.348a1.876,1.876,0,0,1-1.328.551A1.878,1.878,0,0,1-66.831,145.149Zm2.657-74.132,17.348,17.348L-52.6,94.143a5.951,5.951,0,0,0-1.51-2.522A5.908,5.908,0,0,0-58.286,89.9,5.911,5.911,0,0,0-62.5,91.657a5.927,5.927,0,0,0,.037,8.382,5.967,5.967,0,0,0,2.5,1.463l-4.715,4.715-5.482-5.482a2.634,2.634,0,0,0-1.863-.772,2.688,2.688,0,0,0-.611.071,2.645,2.645,0,0,0-1.892,1.742,3.346,3.346,0,0,1-3.181,2.3,3.337,3.337,0,0,1-1.049-.171,3.327,3.327,0,0,1-1.943-1.671,3.317,3.317,0,0,1-.19-2.557,3.353,3.353,0,0,1,2.132-2.135,2.637,2.637,0,0,0,1.74-1.892,2.635,2.635,0,0,0-.7-2.475l-5.638-5.638,16.523-16.523a1.878,1.878,0,0,1,1.328-.548A1.88,1.88,0,0,1-64.174,71.017Zm-38.394,35.735,16.521-16.523.828-.825,5.638,5.638A5.977,5.977,0,0,0-83.4,98.855a5.982,5.982,0,0,0,3.814,7.557,5.941,5.941,0,0,0,1.871.3,5.99,5.99,0,0,0,5.685-4.117l4.66,4.66.841.841-.822.822L-73,114.577a.728.728,0,0,0-.211.461.733.733,0,0,0,.68.78,4.477,4.477,0,0,1,4.207,4.207,4.48,4.48,0,0,1-4.207,4.739q-.134.008-.269.008a4.484,4.484,0,0,1-4.47-4.217.726.726,0,0,0-.469-.646.719.719,0,0,0-.264-.05.733.733,0,0,0-.5.2l-6.708,6.708-.83-.828-16.521-16.521A1.887,1.887,0,0,1-102.568,106.752Z" transform="translate(105.749 -67.833)"/><path class="b" d="M-97.253,85.9l5.638,5.638a2.635,2.635,0,0,1,.7,2.475,2.637,2.637,0,0,1-1.74,1.892,3.353,3.353,0,0,0-2.132,2.135,3.317,3.317,0,0,0,.19,2.557,3.327,3.327,0,0,0,1.943,1.671,3.337,3.337,0,0,0,1.049.171,3.346,3.346,0,0,0,3.181-2.3A2.645,2.645,0,0,1-86.534,98.4a2.688,2.688,0,0,1,.611-.071,2.634,2.634,0,0,1,1.863.772l5.482,5.482,4.715-4.715a5.967,5.967,0,0,1-2.5-1.463,5.927,5.927,0,0,1-.037-8.382,5.911,5.911,0,0,1,4.212-1.755,5.908,5.908,0,0,1,4.172,1.718,5.951,5.951,0,0,1,1.51,2.522l5.777-5.777L-78.07,69.381a1.88,1.88,0,0,0-1.331-.548,1.878,1.878,0,0,0-1.328.548Z" transform="translate(119.645 -66.197)"/><path class="b" d="M-87.678,112.551l.83.828,6.708-6.708a.733.733,0,0,1,.5-.2.719.719,0,0,1,.264.05.726.726,0,0,1,.469.646,4.484,4.484,0,0,0,4.47,4.217q.134,0,.269-.008a4.48,4.48,0,0,0,4.207-4.739,4.478,4.478,0,0,0-4.207-4.207.733.733,0,0,1-.68-.78.728.728,0,0,1,.211-.461l5.656-5.656.822-.822L-69,93.871l-4.66-4.66a5.99,5.99,0,0,1-5.685,4.117,5.941,5.941,0,0,1-1.871-.3,5.982,5.982,0,0,1-3.814-7.557,5.977,5.977,0,0,1,3.814-3.814l-5.638-5.638-.828.825L-104.2,93.365a1.887,1.887,0,0,0,0,2.665Z" transform="translate(107.382 -54.446)"/><path class="d" d="M48.059,17.936,59.467,29.609l-2.384,2.384L47.136,41.94" transform="translate(20.39 11.07)"/></g></g></g></svg>