<svg xmlns="http://www.w3.org/2000/svg" width="140" height="140" viewBox="0 0 140 140"><defs><style>.a{fill:#0067a3;}.b{fill:none;}.c{fill:#fff;}</style></defs><g transform="translate(22284 15259)"><circle class="a" cx="70" cy="70" r="70" transform="translate(-22284 -15259)"/><g transform="translate(-22255 -15230)"><rect class="b" width="82" height="82"/><g transform="translate(10.25 2.563)"><path class="c" d="M64.97,12.254H56.987c0-.023.013-.041.013-.067V3.421A2.563,2.563,0,0,0,54.438.859H5.351A2.563,2.563,0,0,0,2.788,3.421V63.9a2.562,2.562,0,0,0,2.563,2.563h7.89c.023,0,.044-.013.067-.013v8.846a2.562,2.562,0,0,0,2.563,2.563H52.257a2.533,2.533,0,0,0,2.237-1.381L66.123,64.847a2.541,2.541,0,0,0,1.409-2.258V14.817A2.563,2.563,0,0,0,64.97,12.254ZM13.24,63.9H5.351V3.421H54.438v8.766h-41.2Zm39.017,11.4H15.87V14.817h49.1v47.56l-.215.213h-6.8a5.71,5.71,0,0,0-5.7,5.7Zm2.563-2.768V68.289a3.152,3.152,0,0,1,3.142-3.136h4.231Z" transform="translate(-2.788 -0.859)"/><rect class="c" width="10" height="2.563" transform="translate(22.626 25.643)"/><rect class="c" width="30.009" height="2.563" transform="translate(22.626 33.741)"/><rect class="c" width="30.009" height="2.563" transform="translate(22.626 41.839)"/><rect class="c" width="30.009" height="2.563" transform="translate(22.626 49.937)"/></g></g></g></svg>