<svg xmlns="http://www.w3.org/2000/svg" width="140" height="140" viewBox="0 0 140 140"><defs><style>.a{fill:#fff;}.b{fill:none;}.c{fill:#0067a3;}</style></defs><g transform="translate(23112 15259)"><circle class="a" cx="70" cy="70" r="70" transform="translate(-23112 -15259)"/><g transform="translate(-23083 -15230)"><rect class="b" width="82" height="82"/><g transform="translate(5.125 5.918)"><g transform="translate(0 24.046)"><path class="c" d="M1.616,42.156h20.5v-20.5H1.616ZM4.179,24.222H19.553V39.594H4.179Z" transform="translate(-1.616 3.966)"/><path class="c" d="M11.616,46.844h20.5V18.659h-20.5Zm2.562-25.622H29.553v23.06H14.178Z" transform="translate(14.009 -0.722)"/><path class="c" d="M21.616,11.659V57.781h20.5V11.659Zm17.938,43.56H24.178v-41H39.554Z" transform="translate(29.634 -11.659)"/></g><g transform="translate(1.466)"><path class="c" d="M59.662,4.969c-20.5,21.6-46.7,23.67-54.786,23.762-1.545.018-2.445-.036-2.5-.038l-.187,2.555c.051,0,.769.049,2.032.049,7.7,0,35.76-1.7,57.492-24.772L60.7,5.753Z" transform="translate(-2.188 1.934)"/><path class="c" d="M34.961,2.275,22.568,4.066l.183,1.267L22.933,6.6l1.25-.18,6.22-.9.761-.11,1.628-.235.031.215.252,1.747.975,6.766.185,1.286L35.5,15.01l1.269-.183Z" transform="translate(29.656 -2.275)"/></g></g></g></g></svg>