<svg id="Group_4767" data-name="Group 4767" xmlns="http://www.w3.org/2000/svg" width="52.42" height="51.808" viewBox="0 0 52.42 51.808">
  <g id="Rectangle_940" data-name="Rectangle 940" transform="translate(0 16.347)" fill="#fff" stroke="#0b2aea" stroke-width="2">
    <rect width="52.42" height="35.461" stroke="none"/>
    <rect x="1" y="1" width="50.42" height="33.461" fill="none"/>
  </g>
  <g id="Polygon_4" data-name="Polygon 4" transform="translate(52.42 39.474) rotate(180)" fill="#0b2aea">
    <path d="M 49.77522659301758 22.12646484375 L 2.644772052764893 22.12646484375 L 26.20999908447266 1.333626389503479 L 49.77522659301758 22.12646484375 Z" stroke="none"/>
    <path d="M 26.20999908447266 2.667247772216797 L 5.289543151855469 21.12646484375 L 47.13045501708984 21.12646484375 L 26.20999908447266 2.667247772216797 M 26.20999908447266 3.814697265625e-06 L 52.41999816894531 23.12646484375 L 0 23.12646484375 L 26.20999908447266 3.814697265625e-06 Z" stroke="none" fill="#0b2aea"/>
  </g>
  <g id="Group_4765" data-name="Group 4765" transform="translate(8.967)">
    <g id="Path_3100" data-name="Path 3100" transform="translate(0 -6)" fill="#fff">
      <path d="M 16.74342918395996 44.15635681152344 L 0.9999970197677612 30.4521312713623 L 0.9999970197677612 6.999995708465576 L 32.87413787841797 6.999995708465576 L 32.87413787841797 30.44502830505371 L 16.74342918395996 44.15635681152344 Z" stroke="none"/>
      <path d="M 1.999996185302734 7.999996185302734 L 1.999996185302734 29.99681854248047 L 16.75117492675781 42.83731079101562 L 31.87413787841797 29.98258209228516 L 31.87413787841797 7.999996185302734 L 1.999996185302734 7.999996185302734 M -3.814697265625e-06 5.999996185302734 L 33.87413787841797 5.999996185302734 L 33.87413787841797 30.90745544433594 L 16.73566627502441 45.47539520263672 L -3.814697265625e-06 30.90745544433594 L -3.814697265625e-06 5.999996185302734 Z" stroke="none" fill="#0b2aea"/>
    </g>
    <rect id="Rectangle_941" data-name="Rectangle 941" width="7.29" height="1.868" transform="translate(5.999 8.289)" fill="#0b2aea"/>
    <rect id="Rectangle_942" data-name="Rectangle 942" width="21.877" height="1.868" transform="translate(5.999 14.191)" fill="#0b2aea"/>
    <rect id="Rectangle_943" data-name="Rectangle 943" width="21.877" height="1.868" transform="translate(5.999 20.094)" fill="#0b2aea"/>
  </g>
</svg>
