<?xml version="1.0" encoding="iso-8859-1"?>
<!-- Generator: Adobe Illustrator 16.0.0, SVG Export Plug-In . SVG Version: 6.00 Build 0)  -->
<!DOCTYPE svg PUBLIC "-//W3C//DTD SVG 1.1//EN" "http://www.w3.org/Graphics/SVG/1.1/DTD/svg11.dtd">
<svg fill="#dfdfdf" version="1.1" id="Capa_1" xmlns="http://www.w3.org/2000/svg" xmlns:xlink="http://www.w3.org/1999/xlink" x="0px" y="0px"
	 width="21.081px" height="21.081px" viewBox="0 0 21.081 21.081" style="enable-background:new 0 0 21.081 21.081;"
	 xml:space="preserve">
<g>
	<path d="M2.609,2.442C2.255,2.799,2.555,3.124,2.755,3.343C3.481,4.14,3.622,5.218,4.148,6.12c0.548,0.936,0.521,2.036-0.487,2.909
		c-0.462,0.4-0.785,1-1.057,1.565C1.76,12.35,2.09,13.347,3.72,14.253c1.795,0.999,3.586,2.006,5.376,3.016
		c0.297,0.167,0.815,0.354,0.823,0.551c0.072,1.646,1.616,1.896,2.503,2.756c0.851,0.829,1.443,0.613,1.822-0.461
		c0.691-1.951,1.672-3.685,3.538-4.772c0.277-0.163,0.63-0.485,0.282-0.829c-1.518-1.511-0.812-3.413-0.953-5.162
		c-0.176-2.194-0.417-4.422,1.815-5.907c-1.936-0.949-3.6-1.17-4.962,0.552c-0.099,0.124-0.469,0.065-0.705,0.042
		c-1.221-0.113-2.417-0.265-3.433-1.072C9.173,2.448,8.458,2.077,7.555,2.091c-0.73,0.01-1.31-0.269-1.312-1.208
		c0-1.213-0.948-0.928-1.425-0.59C3.992,0.878,3.333,1.708,2.609,2.442z"/>
</g>
</svg>
