<?xml version="1.0" standalone="no"?>
<!DOCTYPE svg PUBLIC "-//W3C//DTD SVG 20010904//EN"
 "http://www.w3.org/TR/2001/REC-SVG-20010904/DTD/svg10.dtd">
<svg version="1.0" xmlns="http://www.w3.org/2000/svg"
 width="700.000000pt" height="700.000000pt" viewBox="0 0 700.000000 700.000000"
 preserveAspectRatio="xMidYMid meet">
<metadata>
Created by potrace 1.14, written by Peter Selinger 2001-2017
</metadata>
<g transform="translate(0.000000,700.000000) scale(0.100000,-0.100000)"
fill="#000000" stroke="none">
<path d="M530 5310 l0 -1160 740 0 740 0 0 1160 0 1160 -740 0 -740 0 0 -1160z"/>
<path d="M2180 5915 l0 -555 600 0 600 0 0 555 0 555 -600 0 -600 0 0 -555z"/>
<path d="M3550 4750 l0 -1720 1460 0 1460 0 0 1720 0 1720 -1460 0 -1460 0 0
-1720z"/>
<path d="M2180 4665 l0 -515 600 0 600 0 0 515 0 515 -600 0 -600 0 0 -515z"/>
<path d="M530 2250 l0 -1720 1425 0 1425 0 0 1720 0 1720 -1425 0 -1425 0 0
-1720z"/>
<path d="M3550 2380 l0 -470 670 0 670 0 0 470 0 470 -670 0 -670 0 0 -470z"/>
<path d="M5060 1690 l0 -1160 705 0 705 0 0 1160 0 1160 -705 0 -705 0 0
-1160z"/>
<path d="M3550 1130 l0 -600 670 0 670 0 0 600 0 600 -670 0 -670 0 0 -600z"/>
</g>
</svg>
