<svg xmlns="http://www.w3.org/2000/svg" width="237.557" height="55.084" viewBox="0 0 237.557 55.084"><defs><style>.a{fill:#2a2a2c;}.b{fill:#ee4538;}.c{fill:#0067a3;}</style></defs><g transform="translate(0 0)"><g transform="translate(20039.557 19084)"><path class="a" d="M4.7.084A4.32,4.32,0,0,1,2.562-.462,4.046,4.046,0,0,1,1.014-1.986a4.292,4.292,0,0,1-.57-2.2,4.259,4.259,0,0,1,.57-2.2A4.058,4.058,0,0,1,2.562-7.9,4.32,4.32,0,0,1,4.7-8.448,4.344,4.344,0,0,1,6.858-7.9,4.015,4.015,0,0,1,8.4-6.384a4.3,4.3,0,0,1,.564,2.2,4.327,4.327,0,0,1-.564,2.2A4,4,0,0,1,6.858-.462,4.344,4.344,0,0,1,4.7.084ZM4.7-1.1A2.875,2.875,0,0,0,6.18-1.482a2.621,2.621,0,0,0,1.014-1.08A3.468,3.468,0,0,0,7.56-4.188a3.432,3.432,0,0,0-.366-1.62A2.589,2.589,0,0,0,6.18-6.876,2.911,2.911,0,0,0,4.7-7.248a2.911,2.911,0,0,0-1.476.372A2.589,2.589,0,0,0,2.214-5.808a3.432,3.432,0,0,0-.366,1.62,3.468,3.468,0,0,0,.366,1.626,2.621,2.621,0,0,0,1.014,1.08A2.875,2.875,0,0,0,4.7-1.1Zm8.28-7.236v5.316a1.9,1.9,0,0,0,.5,1.428,1.915,1.915,0,0,0,1.386.48,1.932,1.932,0,0,0,1.4-.48,1.9,1.9,0,0,0,.5-1.428V-8.34h1.368v5.292a3.19,3.19,0,0,1-.444,1.728A2.756,2.756,0,0,1,16.5-.264a3.832,3.832,0,0,1-1.644.348,3.793,3.793,0,0,1-1.638-.348,2.689,2.689,0,0,1-1.17-1.056,3.258,3.258,0,0,1-.432-1.728V-8.34ZM25.56,0,23.64-3.336H22.6V0H21.228V-8.34h2.88A3.581,3.581,0,0,1,25.734-8a2.331,2.331,0,0,1,1,.9,2.449,2.449,0,0,1,.33,1.26,2.5,2.5,0,0,1-.474,1.482,2.406,2.406,0,0,1-1.458.906L27.192,0ZM22.6-4.428h1.512a1.586,1.586,0,0,0,1.158-.384,1.383,1.383,0,0,0,.39-1.032,1.334,1.334,0,0,0-.384-1.014,1.632,1.632,0,0,0-1.164-.366H22.6Zm11.52.24a4.259,4.259,0,0,1,.57-2.2A4.059,4.059,0,0,1,36.234-7.9a4.32,4.32,0,0,1,2.142-.546,4.351,4.351,0,0,1,2.37.654A3.724,3.724,0,0,1,42.252-5.94H40.608a2.2,2.2,0,0,0-.9-.984,2.671,2.671,0,0,0-1.332-.324,2.911,2.911,0,0,0-1.476.372,2.589,2.589,0,0,0-1.014,1.068,3.432,3.432,0,0,0-.366,1.62,3.432,3.432,0,0,0,.366,1.62A2.629,2.629,0,0,0,36.9-1.494a2.875,2.875,0,0,0,1.476.378,2.671,2.671,0,0,0,1.332-.324,2.2,2.2,0,0,0,.9-.984h1.644A3.692,3.692,0,0,1,40.746-.576a4.382,4.382,0,0,1-2.37.648,4.31,4.31,0,0,1-2.148-.546,4.071,4.071,0,0,1-1.542-1.518A4.259,4.259,0,0,1,34.116-4.188ZM48.972.084A4.32,4.32,0,0,1,46.83-.462a4.046,4.046,0,0,1-1.548-1.524,4.292,4.292,0,0,1-.57-2.2,4.259,4.259,0,0,1,.57-2.2A4.059,4.059,0,0,1,46.83-7.9a4.32,4.32,0,0,1,2.142-.546,4.344,4.344,0,0,1,2.154.546,4.015,4.015,0,0,1,1.542,1.518,4.3,4.3,0,0,1,.564,2.2,4.327,4.327,0,0,1-.564,2.2A4,4,0,0,1,51.126-.462,4.344,4.344,0,0,1,48.972.084Zm0-1.188a2.875,2.875,0,0,0,1.476-.378,2.621,2.621,0,0,0,1.014-1.08,3.468,3.468,0,0,0,.366-1.626,3.432,3.432,0,0,0-.366-1.62,2.589,2.589,0,0,0-1.014-1.068,2.911,2.911,0,0,0-1.476-.372,2.911,2.911,0,0,0-1.476.372,2.589,2.589,0,0,0-1.014,1.068,3.432,3.432,0,0,0-.366,1.62,3.468,3.468,0,0,0,.366,1.626A2.621,2.621,0,0,0,47.5-1.482,2.875,2.875,0,0,0,48.972-1.1Zm8.28-7.236v5.316a1.9,1.9,0,0,0,.5,1.428,1.915,1.915,0,0,0,1.386.48,1.932,1.932,0,0,0,1.4-.48,1.9,1.9,0,0,0,.5-1.428V-8.34H62.4v5.292a3.19,3.19,0,0,1-.444,1.728A2.756,2.756,0,0,1,60.768-.264a3.832,3.832,0,0,1-1.644.348,3.793,3.793,0,0,1-1.638-.348,2.689,2.689,0,0,1-1.17-1.056,3.258,3.258,0,0,1-.432-1.728V-8.34ZM72.348,0H70.98L66.864-6.228V0H65.5V-8.352h1.368L70.98-2.136V-8.352h1.368Zm8.508-8.34v1.116h-2.22V0H77.268V-7.224H75.036V-8.34Zm8.88,0-2.76,5.316V0H85.608V-3.024L82.836-8.34H84.36l1.932,4.092L88.224-8.34ZM100.38.084a4.32,4.32,0,0,1-2.142-.546A4.046,4.046,0,0,1,96.69-1.986a4.292,4.292,0,0,1-.57-2.2,4.26,4.26,0,0,1,.57-2.2A4.058,4.058,0,0,1,98.238-7.9a4.32,4.32,0,0,1,2.142-.546,4.344,4.344,0,0,1,2.154.546,4.015,4.015,0,0,1,1.542,1.518,4.3,4.3,0,0,1,.564,2.2,4.327,4.327,0,0,1-.564,2.2,4,4,0,0,1-1.542,1.524A4.344,4.344,0,0,1,100.38.084Zm0-1.188a2.875,2.875,0,0,0,1.476-.378,2.621,2.621,0,0,0,1.014-1.08,3.468,3.468,0,0,0,.366-1.626,3.432,3.432,0,0,0-.366-1.62,2.589,2.589,0,0,0-1.014-1.068,2.911,2.911,0,0,0-1.476-.372,2.911,2.911,0,0,0-1.476.372A2.589,2.589,0,0,0,97.89-5.808a3.432,3.432,0,0,0-.366,1.62,3.468,3.468,0,0,0,.366,1.626A2.621,2.621,0,0,0,98.9-1.482,2.875,2.875,0,0,0,100.38-1.1Zm8.28-7.236v5.316a1.9,1.9,0,0,0,.5,1.428,1.915,1.915,0,0,0,1.386.48,1.932,1.932,0,0,0,1.4-.48,1.9,1.9,0,0,0,.5-1.428V-8.34h1.368v5.292a3.19,3.19,0,0,1-.444,1.728,2.756,2.756,0,0,1-1.188,1.056,3.832,3.832,0,0,1-1.644.348,3.793,3.793,0,0,1-1.638-.348,2.689,2.689,0,0,1-1.17-1.056,3.258,3.258,0,0,1-.432-1.728V-8.34ZM121.236,0l-1.92-3.336h-1.044V0H116.9V-8.34h2.88A3.581,3.581,0,0,1,121.41-8a2.331,2.331,0,0,1,1,.9,2.449,2.449,0,0,1,.33,1.26,2.5,2.5,0,0,1-.474,1.482,2.406,2.406,0,0,1-1.458.906L122.868,0Zm-2.964-4.428h1.512a1.586,1.586,0,0,0,1.158-.384,1.383,1.383,0,0,0,.39-1.032,1.334,1.334,0,0,0-.384-1.014,1.632,1.632,0,0,0-1.164-.366h-1.512ZM134.58,0l-1.92-3.336h-1.044V0h-1.368V-8.34h2.88A3.581,3.581,0,0,1,134.754-8a2.331,2.331,0,0,1,1,.9,2.449,2.449,0,0,1,.33,1.26,2.5,2.5,0,0,1-.474,1.482,2.406,2.406,0,0,1-1.458.906L136.212,0Zm-2.964-4.428h1.512a1.586,1.586,0,0,0,1.158-.384,1.383,1.383,0,0,0,.39-1.032,1.334,1.334,0,0,0-.384-1.014,1.632,1.632,0,0,0-1.164-.366h-1.512Zm8.9-2.808v2.448h2.88v1.116h-2.88v2.556h3.24V0h-4.608V-8.352h4.608v1.116Zm8.988,7.32A3.735,3.735,0,0,1,148-.21a2.481,2.481,0,0,1-1.056-.834,2.118,2.118,0,0,1-.384-1.26h1.464a1.322,1.322,0,0,0,.426.888,1.51,1.51,0,0,0,1.062.348,1.636,1.636,0,0,0,1.1-.342,1.112,1.112,0,0,0,.4-.882.963.963,0,0,0-.246-.684,1.645,1.645,0,0,0-.612-.408,9.23,9.23,0,0,0-1.014-.312,9.5,9.5,0,0,1-1.326-.438,2.191,2.191,0,0,1-.87-.69,1.994,1.994,0,0,1-.36-1.248,2.218,2.218,0,0,1,.36-1.26,2.3,2.3,0,0,1,1.008-.828,3.663,3.663,0,0,1,1.5-.288,3.126,3.126,0,0,1,1.986.606,2.236,2.236,0,0,1,.858,1.662H150.78a1.1,1.1,0,0,0-.432-.78,1.6,1.6,0,0,0-1.044-.324,1.481,1.481,0,0,0-.96.3,1.045,1.045,0,0,0-.372.864.877.877,0,0,0,.234.63,1.652,1.652,0,0,0,.594.39,9.222,9.222,0,0,0,.984.312,10.273,10.273,0,0,1,1.35.456,2.247,2.247,0,0,1,.888.7,2.018,2.018,0,0,1,.366,1.266,2.276,2.276,0,0,1-.342,1.2,2.467,2.467,0,0,1-1,.906A3.284,3.284,0,0,1,149.508.084Zm11.652-5.94a2.518,2.518,0,0,1-.3,1.2,2.248,2.248,0,0,1-.96.918,3.563,3.563,0,0,1-1.692.354H156.7V0h-1.368V-8.34h2.88a3.636,3.636,0,0,1,1.626.33,2.294,2.294,0,0,1,1,.894A2.449,2.449,0,0,1,161.16-5.856ZM158.208-4.5a1.668,1.668,0,0,0,1.164-.354,1.3,1.3,0,0,0,.384-1q0-1.368-1.548-1.368H156.7V-4.5ZM167.592.084a4.32,4.32,0,0,1-2.142-.546A4.046,4.046,0,0,1,163.9-1.986a4.292,4.292,0,0,1-.57-2.2,4.259,4.259,0,0,1,.57-2.2A4.058,4.058,0,0,1,165.45-7.9a4.32,4.32,0,0,1,2.142-.546,4.344,4.344,0,0,1,2.154.546,4.015,4.015,0,0,1,1.542,1.518,4.3,4.3,0,0,1,.564,2.2,4.327,4.327,0,0,1-.564,2.2,4,4,0,0,1-1.542,1.524A4.344,4.344,0,0,1,167.592.084Zm0-1.188a2.875,2.875,0,0,0,1.476-.378,2.621,2.621,0,0,0,1.014-1.08,3.468,3.468,0,0,0,.366-1.626,3.431,3.431,0,0,0-.366-1.62,2.589,2.589,0,0,0-1.014-1.068,2.911,2.911,0,0,0-1.476-.372,2.911,2.911,0,0,0-1.476.372A2.589,2.589,0,0,0,165.1-5.808a3.431,3.431,0,0,0-.366,1.62,3.468,3.468,0,0,0,.366,1.626,2.621,2.621,0,0,0,1.014,1.08A2.875,2.875,0,0,0,167.592-1.1ZM181.368,0H180l-4.116-6.228V0h-1.368V-8.352h1.368L180-2.136V-8.352h1.368Zm5.868.084a3.735,3.735,0,0,1-1.512-.294,2.481,2.481,0,0,1-1.056-.834,2.118,2.118,0,0,1-.384-1.26h1.464a1.322,1.322,0,0,0,.426.888,1.51,1.51,0,0,0,1.062.348,1.636,1.636,0,0,0,1.1-.342,1.112,1.112,0,0,0,.4-.882.963.963,0,0,0-.246-.684,1.645,1.645,0,0,0-.612-.408,9.23,9.23,0,0,0-1.014-.312,9.5,9.5,0,0,1-1.326-.438,2.191,2.191,0,0,1-.87-.69,1.994,1.994,0,0,1-.36-1.248,2.218,2.218,0,0,1,.36-1.26,2.3,2.3,0,0,1,1.008-.828,3.663,3.663,0,0,1,1.5-.288,3.126,3.126,0,0,1,1.986.606,2.236,2.236,0,0,1,.858,1.662h-1.512a1.1,1.1,0,0,0-.432-.78,1.6,1.6,0,0,0-1.044-.324,1.481,1.481,0,0,0-.96.3,1.045,1.045,0,0,0-.372.864.877.877,0,0,0,.234.63,1.652,1.652,0,0,0,.594.39,9.222,9.222,0,0,0,.984.312,10.273,10.273,0,0,1,1.35.456,2.247,2.247,0,0,1,.888.7,2.018,2.018,0,0,1,.366,1.266,2.276,2.276,0,0,1-.342,1.2,2.467,2.467,0,0,1-1,.906A3.284,3.284,0,0,1,187.236.084Zm7.188-8.424V0h-1.368V-8.34Zm7.584,4.056a1.844,1.844,0,0,1,1.14.708,2.082,2.082,0,0,1,.468,1.332,2.064,2.064,0,0,1-.33,1.146,2.236,2.236,0,0,1-.954.8A3.373,3.373,0,0,1,200.88,0h-3.336V-8.34h3.18a3.413,3.413,0,0,1,1.464.288,2.148,2.148,0,0,1,.924.774,1.968,1.968,0,0,1,.312,1.086,1.86,1.86,0,0,1-.384,1.2A2.236,2.236,0,0,1,202.008-4.284Zm-3.1-.552H200.6a1.625,1.625,0,0,0,1.05-.306,1.069,1.069,0,0,0,.378-.882,1.09,1.09,0,0,0-.378-.882,1.583,1.583,0,0,0-1.05-.318h-1.692Zm1.848,3.72a1.635,1.635,0,0,0,1.092-.336,1.161,1.161,0,0,0,.4-.936,1.214,1.214,0,0,0-.42-.972,1.656,1.656,0,0,0-1.116-.36h-1.8v2.6Zm7.032-7.224V0h-1.368V-8.34ZM212.28-1.1h2.82V0h-4.188V-8.34h1.368Zm6.648-7.236V0H217.56V-8.34Zm8.508,0v1.116h-2.22V0h-1.368V-7.224h-2.232V-8.34Zm8.88,0-2.76,5.316V0h-1.368V-3.024L229.416-8.34h1.524l1.932,4.092L234.8-8.34Z" transform="translate(-20040 -19029)"/><path class="b" d="M28.05-24.4a10.493,10.493,0,0,1-1.25,5,9.368,9.368,0,0,1-4,3.825A14.847,14.847,0,0,1,15.75-14.1H9.45V0H3.75V-34.75h12a15.151,15.151,0,0,1,6.775,1.375,9.559,9.559,0,0,1,4.15,3.725A10.2,10.2,0,0,1,28.05-24.4Zm-12.3,5.65a6.949,6.949,0,0,0,4.85-1.475A5.4,5.4,0,0,0,22.2-24.4q0-5.7-6.45-5.7H9.45v11.35Zm43,4.3a17.82,17.82,0,0,1-.2,2.8H37.5a7.645,7.645,0,0,0,2.45,5.3,7.734,7.734,0,0,0,5.4,2,6.67,6.67,0,0,0,6.5-3.85H58a12.41,12.41,0,0,1-4.525,6.225A13.277,13.277,0,0,1,45.35.45a14.07,14.07,0,0,1-7.075-1.775,12.629,12.629,0,0,1-4.9-5A15.253,15.253,0,0,1,31.6-13.8a15.611,15.611,0,0,1,1.725-7.475,12.131,12.131,0,0,1,4.85-4.975A14.434,14.434,0,0,1,45.35-28a14.031,14.031,0,0,1,6.95,1.7,12.012,12.012,0,0,1,4.75,4.775A14.381,14.381,0,0,1,58.75-14.45Zm-5.95-1.8a6.487,6.487,0,0,0-2.25-5.05,8.044,8.044,0,0,0-5.45-1.9,7.321,7.321,0,0,0-5.05,1.875,7.836,7.836,0,0,0-2.5,5.075ZM74.35.45A13.88,13.88,0,0,1,68.525-.725a10.231,10.231,0,0,1-4.075-3.2,7.976,7.976,0,0,1-1.6-4.525h5.9a4.023,4.023,0,0,0,1.675,2.925A6.082,6.082,0,0,0,74.25-4.35a6.442,6.442,0,0,0,3.725-.925A2.791,2.791,0,0,0,79.3-7.65a2.439,2.439,0,0,0-1.475-2.3A27.648,27.648,0,0,0,73.15-11.6a45.121,45.121,0,0,1-5.05-1.65,8.853,8.853,0,0,1-3.375-2.45A6.421,6.421,0,0,1,63.3-20.05a6.784,6.784,0,0,1,1.3-4.025,8.657,8.657,0,0,1,3.725-2.875A13.918,13.918,0,0,1,73.9-28a11.512,11.512,0,0,1,7.575,2.375A8.528,8.528,0,0,1,84.55-19.15h-5.7a4.06,4.06,0,0,0-1.5-2.95,5.609,5.609,0,0,0-3.65-1.1,5.925,5.925,0,0,0-3.45.85,2.632,2.632,0,0,0-1.2,2.25,2.435,2.435,0,0,0,.8,1.85,5.7,5.7,0,0,0,1.95,1.175q1.15.425,3.4,1.075a36.987,36.987,0,0,1,4.925,1.625A9.169,9.169,0,0,1,83.45-11.95,6.416,6.416,0,0,1,84.9-7.7a7.128,7.128,0,0,1-1.3,4.2A8.619,8.619,0,0,1,79.925-.6,13.693,13.693,0,0,1,74.35.45ZM89.15-13.9a15.247,15.247,0,0,1,1.725-7.35,12.644,12.644,0,0,1,4.7-4.975A12.591,12.591,0,0,1,102.15-28a12.027,12.027,0,0,1,5.675,1.275A11.517,11.517,0,0,1,111.7-23.55v-4h5.75V0H111.7V-4.1a11.32,11.32,0,0,1-3.95,3.25,12.174,12.174,0,0,1-5.7,1.3,12.114,12.114,0,0,1-6.5-1.825,12.943,12.943,0,0,1-4.675-5.1A15.689,15.689,0,0,1,89.15-13.9Zm22.55.1a9.976,9.976,0,0,0-1.175-4.95,8.248,8.248,0,0,0-3.075-3.2,8.045,8.045,0,0,0-4.1-1.1,8.189,8.189,0,0,0-4.1,1.075,8.107,8.107,0,0,0-3.075,3.15A9.835,9.835,0,0,0,95-13.9a10.263,10.263,0,0,0,1.175,5,8.29,8.29,0,0,0,3.1,3.275A7.951,7.951,0,0,0,103.35-4.5a8.045,8.045,0,0,0,4.1-1.1,8.207,8.207,0,0,0,3.075-3.225A10.119,10.119,0,0,0,111.7-13.8Z" transform="translate(-20042 -19049.25)"/><path class="c" d="M33.2-35.1,21.05-11.6V0H12.5V-11.6L.35-35.1h9.7l6.8,14.7L23.6-35.1ZM62.95-14.4a21.826,21.826,0,0,1-.15,2.5H43.45a5.814,5.814,0,0,0,1.675,3.975A5.117,5.117,0,0,0,48.75-6.55a4.493,4.493,0,0,0,4.45-2.7h9.1A12.487,12.487,0,0,1,59.775-4.3,12.642,12.642,0,0,1,55.2-.85,14.7,14.7,0,0,1,49.05.4a14.965,14.965,0,0,1-7.3-1.75,12.448,12.448,0,0,1-5-5,15.436,15.436,0,0,1-1.8-7.6,15.612,15.612,0,0,1,1.775-7.6,12.286,12.286,0,0,1,4.975-5,15.07,15.07,0,0,1,7.35-1.75,14.919,14.919,0,0,1,7.2,1.7,12.207,12.207,0,0,1,4.925,4.85A14.721,14.721,0,0,1,62.95-14.4ZM54.2-16.65a4.4,4.4,0,0,0-1.5-3.5,5.522,5.522,0,0,0-3.75-1.3,5.415,5.415,0,0,0-3.625,1.25A5.552,5.552,0,0,0,43.5-16.65ZM83-7.25V0H78.65Q74,0,71.4-2.275T68.8-9.7V-20.8H65.4v-7.1h3.4v-6.8h8.55v6.8h5.6v7.1h-5.6V-9.6a2.343,2.343,0,0,0,.6,1.8,2.929,2.929,0,0,0,2,.55ZM115.3-27.9V0h-8.55V-3.8a9.383,9.383,0,0,1-3.525,2.975A10.757,10.757,0,0,1,98.3.3a11.031,11.031,0,0,1-5.65-1.425,9.608,9.608,0,0,1-3.8-4.125A14.037,14.037,0,0,1,87.5-11.6V-27.9H96v15.15A6.123,6.123,0,0,0,97.45-8.4a5.084,5.084,0,0,0,3.9,1.55A5.147,5.147,0,0,0,105.3-8.4a6.123,6.123,0,0,0,1.45-4.35V-27.9Z" transform="translate(-19917.301 -19048.9)"/></g></g></svg>