<svg xmlns="http://www.w3.org/2000/svg" width="212.922" height="123.366" viewBox="0 0 212.922 123.366"><defs><style>.a{fill:#2a2a2c;}</style></defs><g transform="translate(0 -2706.275)"><g transform="translate(0 2706.275)"><path class="a" d="M250.836,95.57h-8.178v4.806h2.909v3.269H238.79v13.1h7.728v-4.873H244.05v-3.354h6.786v-.255h0V95.825h0Z" transform="translate(-39.731 -14.427)"/><path class="a" d="M164.8,24.478H131.475V20.954h70.54V8.856H139.27V4.814h29.218V0H133.134V13.152H195.88v3.515H125.34v12.1H164.8Z" transform="translate(-20.855)"/><path class="a" d="M126.615,44.469V40.98h86.412V28.83H168v4.288h38.888v3.566H120.48V48.723h3.393v.034h102.96v3.464H148.348V64.4h41.7V60.109H154.483V56.517h78.485V44.469Z" transform="translate(-20.046 -4.352)"/><path class="a" d="M195.4,102.55v4.288h21.766V110.4H176.69v12.2h29.168v3.422H187.252v12.821h15.213v-4.873h-9.078v-3.659h18.6V118.266h-6.127v.042H182.834v-3.625H223.3V102.55H195.4Z" transform="translate(-29.399 -15.481)"/><path class="a" d="M203.241,65.67v4.288h25.417v3.49H175.69V85.487h2.251v.068h37.121V89.07H179.933v12.2H191.22V96.983h-5.152V93.366H221.2V81.258H181.825V77.743h52.968V65.67Z" transform="translate(-29.232 -9.913)"/><path class="a" d="M31.711,86.892l-1.667,1.274a8.909,8.909,0,0,0-3.209-2.708,9.334,9.334,0,0,0-4.168-.925,9.088,9.088,0,0,0-4.593,1.206A8.713,8.713,0,0,0,14.8,89a9.147,9.147,0,0,0-1.167,4.6,8.716,8.716,0,0,0,2.6,6.444,8.929,8.929,0,0,0,6.561,2.547,9.1,9.1,0,0,0,7.286-3.473l1.667,1.265a10.4,10.4,0,0,1-3.868,3.107,11.949,11.949,0,0,1-5.177,1.1,10.677,10.677,0,0,1-8.578-3.685,11.266,11.266,0,0,1-2.643-7.523,10.574,10.574,0,0,1,3.193-7.8,10.928,10.928,0,0,1,8-3.167,11.575,11.575,0,0,1,5.243,1.172,10.178,10.178,0,0,1,3.826,3.286" transform="translate(-1.91 -12.44)"/><path class="a" d="M50.42,82.439a10.668,10.668,0,0,1,7.853,3.2,11.247,11.247,0,0,1,2.393,12.127,10.894,10.894,0,0,1-10.113,6.849,10.5,10.5,0,0,1-7.778-3.209A10.678,10.678,0,0,1,39.6,93.621a11.367,11.367,0,0,1,1.484-5.612,10.565,10.565,0,0,1,3.935-4.067,10.44,10.44,0,0,1,5.4-1.477m.092,2.055a8.835,8.835,0,0,0-7.578,4.508,9.278,9.278,0,0,0-1.159,4.619,8.975,8.975,0,0,0,2.539,6.327A8.753,8.753,0,0,0,54.98,101.4a8.415,8.415,0,0,0,3.2-3.26,9.286,9.286,0,0,0,1.15-4.593,9.079,9.079,0,0,0-1.15-4.551,8.929,8.929,0,0,0-7.678-4.5" transform="translate(-6.589 -12.444)"/><path class="a" d="M70.83,104.182V83.066h4.31a21.4,21.4,0,0,1,6.744.764A9.028,9.028,0,0,1,86.6,87.557a11.5,11.5,0,0,1,1.667,6.334,11.2,11.2,0,0,1-1.35,5.578,8.693,8.693,0,0,1-3.493,3.566,12.987,12.987,0,0,1-6.027,1.146Zm1.984-2h2.4a22.219,22.219,0,0,0,5.96-.543,6.907,6.907,0,0,0,3.676-2.793,8.712,8.712,0,0,0,1.342-4.924A9.166,9.166,0,0,0,84.743,88.7a7.318,7.318,0,0,0-4.051-2.972,24.143,24.143,0,0,0-6.41-.594H72.814Z" transform="translate(-11.785 -12.536)"/><path class="a" d="M96.61,83.07h11.879v2.063h-9.8v6.623h9.72v2.063h-9.72v8.3h9.72v2.072H96.61Z" transform="translate(-16.075 -12.54)"/><path class="a" d="M9.837,113.92h4.927L24.575,139.9H19.532l-2-5.349H7.119L5.043,139.9H0Zm2.5,6.886L8.92,129.729h6.819Z" transform="translate(0 -17.197)"/><path class="a" d="M34.07,113.92H46.733v4.823H38.888v4.712h7.844v4.755H38.888V139.9H34.07Z" transform="translate(-5.669 -17.197)"/><path class="a" d="M54.83,113.92h5.143a16.874,16.874,0,0,1,6.027.764,6.288,6.288,0,0,1,2.884,2.547,7.949,7.949,0,0,1,1.084,4.245,6.708,6.708,0,0,1-4.835,6.843l6.044,11.555h-5.31l-5.735-11.038H59.69v11.038H54.83Zm4.86,10.189h1.517a5.851,5.851,0,0,0,3.193-.62,2.347,2.347,0,0,0,.834-2.055,2.581,2.581,0,0,0-.434-1.486,2.457,2.457,0,0,0-1.159-.9,8.847,8.847,0,0,0-2.668-.272H59.69Z" transform="translate(-9.123 -17.197)"/><rect class="a" width="4.818" height="25.981" transform="translate(65.639 96.723)"/><path class="a" d="M114.275,118.367l-3.393,3.294a10.436,10.436,0,0,0-7.8-3.727,8.448,8.448,0,0,0-6.165,2.543,8.77,8.77,0,0,0-2.5,6.279,9.366,9.366,0,0,0,1.109,4.61,7.993,7.993,0,0,0,3.134,3.167,9.038,9.038,0,0,0,4.51,1.146,9.142,9.142,0,0,0,3.86-.8,13.836,13.836,0,0,0,3.851-2.929l3.334,3.5a17.992,17.992,0,0,1-5.343,3.9,14.4,14.4,0,0,1-5.744,1.087,13.107,13.107,0,0,1-9.737-3.838,13.448,13.448,0,0,1-3.785-9.849,13.69,13.69,0,0,1,1.684-6.937,12.93,12.93,0,0,1,4.935-4.857,13.8,13.8,0,0,1,6.936-1.834,14.579,14.579,0,0,1,11.112,5.222" transform="translate(-14.908 -17.076)"/><path class="a" d="M131.675,113.92h4.918l9.82,25.981h-5.052l-1.992-5.349H128.957l-2.076,5.349H121.83Zm2.5,6.886-3.426,8.923h6.827Z" transform="translate(-20.271 -17.197)"/><path class="a" d="M124.829,89.6c.067-.212.125-.391.158-.535a1.868,1.868,0,0,0,.05-.4,1.4,1.4,0,0,0-.233-.849.827.827,0,0,0-.684-.3c-.609,0-1.384.56-2.309,1.7a35.31,35.31,0,0,0-3.334,5.094h4.518l-.25.238h-4.426l-4.018,6.58a16.4,16.4,0,0,1-3.81,4.6,6.831,6.831,0,0,1-4.168,1.469,4.346,4.346,0,0,1-2.5-.62,2.015,2.015,0,0,1-.892-1.749,1.773,1.773,0,0,1,.567-1.333,1.947,1.947,0,0,1,1.417-.543,3.614,3.614,0,0,1,.433,0,2.631,2.631,0,0,1,.442.059v.144H105.5a1.43,1.43,0,0,0-1.092.467,1.656,1.656,0,0,0-.433,1.18,2.055,2.055,0,0,0,.684,1.588,2.563,2.563,0,0,0,1.784.628,4.963,4.963,0,0,0,3.334-1.554,27.84,27.84,0,0,0,4.076-5.493l3.334-5.425h-1.667l.192-.238h1.576l1.834-2.776a12.807,12.807,0,0,1,2.726-3.133,4.431,4.431,0,0,1,2.684-1.078,1.719,1.719,0,0,1,1.084.323.965.965,0,0,1,.417.849,1.106,1.106,0,0,1-.308.807,1.431,1.431,0,0,1-.834.391" transform="translate(-17.126 -13.181)"/><path class="a" d="M133.2,96.757l.125.085a4.844,4.844,0,0,1-1.167,1.087,2.278,2.278,0,0,1-1.2.34,1.523,1.523,0,0,1-1.017-.323,1.763,1.763,0,0,1-.575-.951,6.144,6.144,0,0,1-.7,2.038,7.638,7.638,0,0,1-3.226,2.989,3.8,3.8,0,0,1-1.667.425,1.56,1.56,0,0,1-1.234-.475,2.228,2.228,0,0,1-.408-1.443,4.2,4.2,0,0,1,.834-2.292,9.145,9.145,0,0,1,2.251-2.267,5.986,5.986,0,0,1,1.367-.747,3.668,3.668,0,0,1,1.317-.28c.784,0,1.325.671,1.626,2a.164.164,0,0,0,0,.068,1.353,1.353,0,0,0,.508.8,1.457,1.457,0,0,0,.925.289,2.129,2.129,0,0,0,1.125-.314,4.456,4.456,0,0,0,1.117-1.027m-4.827-.475a1.3,1.3,0,0,0-.225-.849.745.745,0,0,0-.617-.3,1.969,1.969,0,0,0-1.034.374,5.26,5.26,0,0,0-1.142,1.112,11.826,11.826,0,0,0-1.567,2.386,4.744,4.744,0,0,0-.567,2.021,1.359,1.359,0,0,0,.258.849.828.828,0,0,0,.684.34,2.164,2.164,0,0,0,1.234-.543,6.938,6.938,0,0,0,1.376-1.486,10.067,10.067,0,0,0,1.167-2.123,5.12,5.12,0,0,0,.434-1.808" transform="translate(-20.32 -14.332)"/><path class="a" d="M139.624,95.09a7.035,7.035,0,0,0-.709,1.231,2.773,2.773,0,0,0-.25,1.01.739.739,0,0,0,.175.535.823.823,0,0,0,.567.17,2.468,2.468,0,0,0,1.059-.331,4.17,4.17,0,0,0,1.15-.849l.108.119a4.608,4.608,0,0,1-1.267.959,3.008,3.008,0,0,1-1.359.357,1.458,1.458,0,0,1-1.034-.348,1.243,1.243,0,0,1-.367-.951,2.067,2.067,0,0,1,.075-.535,3.639,3.639,0,0,1,.225-.6,20.461,20.461,0,0,0-3.168,3.014,14.959,14.959,0,0,0-2.117,3.4l-1.434.085,4.243-6.962,1.334-.085-2.676,3.872.075.059A22.137,22.137,0,0,1,135.99,97.4c.634-.6,1.317-1.2,2.051-1.792h.042a.966.966,0,0,1,.6-.408Z" transform="translate(-21.843 -14.355)"/></g></g></svg>