<svg xmlns="http://www.w3.org/2000/svg" width="153.266" height="35.539" viewBox="0 0 153.266 35.539">
  <g id="Group_5002" data-name="Group 5002" transform="translate(20039.557 19084)">
    <path id="Path_3116" data-name="Path 3116" d="M3.192-2.943A2.787,2.787,0,0,1,1.81-3.3a2.61,2.61,0,0,1-1-.983A2.769,2.769,0,0,1,.444-5.7,2.748,2.748,0,0,1,.812-7.116a2.618,2.618,0,0,1,1-.979,2.787,2.787,0,0,1,1.382-.352,2.8,2.8,0,0,1,1.39.352,2.591,2.591,0,0,1,.995.979A2.771,2.771,0,0,1,5.941-5.7a2.792,2.792,0,0,1-.364,1.421,2.583,2.583,0,0,1-.995.983A2.8,2.8,0,0,1,3.192-2.943Zm0-.766a1.855,1.855,0,0,0,.952-.244,1.691,1.691,0,0,0,.654-.7A2.237,2.237,0,0,0,5.035-5.7,2.214,2.214,0,0,0,4.8-6.745a1.67,1.67,0,0,0-.654-.689,1.878,1.878,0,0,0-.952-.24,1.878,1.878,0,0,0-.952.24,1.67,1.67,0,0,0-.654.689A2.214,2.214,0,0,0,1.35-5.7,2.237,2.237,0,0,0,1.586-4.65a1.691,1.691,0,0,0,.654.7A1.855,1.855,0,0,0,3.192-3.71ZM8.535-8.378v3.43a1.223,1.223,0,0,0,.321.921,1.235,1.235,0,0,0,.894.31,1.246,1.246,0,0,0,.9-.31,1.223,1.223,0,0,0,.321-.921v-3.43h.883v3.414a2.058,2.058,0,0,1-.286,1.115,1.778,1.778,0,0,1-.766.681,2.472,2.472,0,0,1-1.061.225,2.447,2.447,0,0,1-1.057-.225,1.735,1.735,0,0,1-.755-.681,2.1,2.1,0,0,1-.279-1.115V-8.378ZM16.648-3,15.41-5.15h-.674V-3h-.883V-8.378h1.858a2.31,2.31,0,0,1,1.049.217,1.5,1.5,0,0,1,.643.581,1.58,1.58,0,0,1,.213.813,1.611,1.611,0,0,1-.306.956,1.552,1.552,0,0,1-.941.585L17.7-3ZM14.736-5.854h.976a1.023,1.023,0,0,0,.747-.248.892.892,0,0,0,.252-.666.861.861,0,0,0-.248-.654,1.053,1.053,0,0,0-.751-.236h-.976Zm7.432.155a2.748,2.748,0,0,1,.368-1.417,2.618,2.618,0,0,1,1-.979,2.787,2.787,0,0,1,1.382-.352,2.807,2.807,0,0,1,1.529.422,2.4,2.4,0,0,1,.972,1.2H26.357a1.422,1.422,0,0,0-.581-.635,1.723,1.723,0,0,0-.859-.209,1.878,1.878,0,0,0-.952.24,1.67,1.67,0,0,0-.654.689A2.214,2.214,0,0,0,23.074-5.7a2.214,2.214,0,0,0,.236,1.045,1.7,1.7,0,0,0,.654.693,1.855,1.855,0,0,0,.952.244,1.723,1.723,0,0,0,.859-.209,1.422,1.422,0,0,0,.581-.635h1.061a2.382,2.382,0,0,1-.972,1.192,2.827,2.827,0,0,1-1.529.418A2.781,2.781,0,0,1,23.531-3.3a2.626,2.626,0,0,1-.995-.979A2.748,2.748,0,0,1,22.168-5.7Zm9.585,2.756A2.787,2.787,0,0,1,30.371-3.3a2.61,2.61,0,0,1-1-.983A2.769,2.769,0,0,1,29-5.7a2.748,2.748,0,0,1,.368-1.417,2.618,2.618,0,0,1,1-.979,2.787,2.787,0,0,1,1.382-.352,2.8,2.8,0,0,1,1.39.352,2.591,2.591,0,0,1,.995.979A2.771,2.771,0,0,1,34.5-5.7a2.792,2.792,0,0,1-.364,1.421,2.583,2.583,0,0,1-.995.983A2.8,2.8,0,0,1,31.753-2.943Zm0-.766a1.855,1.855,0,0,0,.952-.244,1.691,1.691,0,0,0,.654-.7A2.237,2.237,0,0,0,33.6-5.7a2.214,2.214,0,0,0-.236-1.045,1.67,1.67,0,0,0-.654-.689,1.878,1.878,0,0,0-.952-.24,1.878,1.878,0,0,0-.952.24,1.67,1.67,0,0,0-.654.689A2.214,2.214,0,0,0,29.911-5.7a2.237,2.237,0,0,0,.236,1.049,1.691,1.691,0,0,0,.654.7A1.855,1.855,0,0,0,31.753-3.71ZM37.1-8.378v3.43a1.223,1.223,0,0,0,.321.921,1.235,1.235,0,0,0,.894.31,1.246,1.246,0,0,0,.9-.31,1.223,1.223,0,0,0,.321-.921v-3.43h.883v3.414a2.058,2.058,0,0,1-.286,1.115,1.778,1.778,0,0,1-.766.681,2.472,2.472,0,0,1-1.061.225,2.447,2.447,0,0,1-1.057-.225,1.735,1.735,0,0,1-.755-.681,2.1,2.1,0,0,1-.279-1.115V-8.378ZM46.835-3h-.883L43.3-7.016V-3h-.883V-8.386H43.3l2.656,4.01v-4.01h.883Zm5.489-5.381v.72H50.892V-3h-.883V-7.658h-1.44v-.72Zm5.729,0-1.781,3.43V-3H55.39V-4.949L53.6-8.378h.983l1.246,2.64,1.246-2.64Zm6.867,5.435A2.787,2.787,0,0,1,63.539-3.3a2.61,2.61,0,0,1-1-.983A2.769,2.769,0,0,1,62.172-5.7a2.748,2.748,0,0,1,.368-1.417,2.618,2.618,0,0,1,1-.979,2.787,2.787,0,0,1,1.382-.352,2.8,2.8,0,0,1,1.39.352,2.591,2.591,0,0,1,.995.979A2.771,2.771,0,0,1,67.669-5.7a2.792,2.792,0,0,1-.364,1.421,2.583,2.583,0,0,1-.995.983A2.8,2.8,0,0,1,64.921-2.943Zm0-.766a1.855,1.855,0,0,0,.952-.244,1.691,1.691,0,0,0,.654-.7A2.237,2.237,0,0,0,66.763-5.7a2.214,2.214,0,0,0-.236-1.045,1.67,1.67,0,0,0-.654-.689,1.878,1.878,0,0,0-.952-.24,1.878,1.878,0,0,0-.952.24,1.67,1.67,0,0,0-.654.689A2.214,2.214,0,0,0,63.078-5.7a2.237,2.237,0,0,0,.236,1.049,1.691,1.691,0,0,0,.654.7A1.855,1.855,0,0,0,64.921-3.71Zm5.342-4.669v3.43a1.223,1.223,0,0,0,.321.921,1.235,1.235,0,0,0,.894.31,1.246,1.246,0,0,0,.9-.31,1.223,1.223,0,0,0,.321-.921v-3.43h.883v3.414A2.058,2.058,0,0,1,73.3-3.849a1.778,1.778,0,0,1-.766.681,2.472,2.472,0,0,1-1.061.225,2.447,2.447,0,0,1-1.057-.225,1.735,1.735,0,0,1-.755-.681,2.1,2.1,0,0,1-.279-1.115V-8.378ZM78.377-3,77.138-5.15h-.674V-3h-.883V-8.378H77.44a2.31,2.31,0,0,1,1.049.217,1.5,1.5,0,0,1,.643.581,1.58,1.58,0,0,1,.213.813,1.611,1.611,0,0,1-.306.956,1.552,1.552,0,0,1-.941.585L79.429-3ZM76.464-5.854h.976a1.023,1.023,0,0,0,.747-.248.892.892,0,0,0,.252-.666.861.861,0,0,0-.248-.654,1.053,1.053,0,0,0-.751-.236h-.976ZM86.986-3,85.747-5.15h-.674V-3h-.883V-8.378h1.858a2.31,2.31,0,0,1,1.049.217,1.5,1.5,0,0,1,.643.581,1.58,1.58,0,0,1,.213.813,1.611,1.611,0,0,1-.306.956,1.552,1.552,0,0,1-.941.585L88.039-3ZM85.074-5.854h.976A1.023,1.023,0,0,0,86.8-6.1a.892.892,0,0,0,.252-.666.861.861,0,0,0-.248-.654,1.053,1.053,0,0,0-.751-.236h-.976Zm5.745-1.812v1.579h1.858v.72H90.818v1.649h2.09V-3H89.936V-8.386h2.973v.72Zm5.8,4.723a2.41,2.41,0,0,1-.976-.19,1.6,1.6,0,0,1-.681-.538,1.367,1.367,0,0,1-.248-.813h.945a.853.853,0,0,0,.275.573.974.974,0,0,0,.685.225,1.055,1.055,0,0,0,.712-.221.717.717,0,0,0,.255-.569.621.621,0,0,0-.159-.441,1.062,1.062,0,0,0-.395-.263,5.954,5.954,0,0,0-.654-.2,6.13,6.13,0,0,1-.856-.283,1.414,1.414,0,0,1-.561-.445,1.287,1.287,0,0,1-.232-.805,1.431,1.431,0,0,1,.232-.813,1.484,1.484,0,0,1,.65-.534,2.363,2.363,0,0,1,.968-.186,2.017,2.017,0,0,1,1.281.391,1.443,1.443,0,0,1,.554,1.072h-.976a.707.707,0,0,0-.279-.5,1.03,1.03,0,0,0-.674-.209.956.956,0,0,0-.619.194.674.674,0,0,0-.24.557.566.566,0,0,0,.151.406,1.066,1.066,0,0,0,.383.252,5.95,5.95,0,0,0,.635.2,6.628,6.628,0,0,1,.871.294,1.45,1.45,0,0,1,.573.453,1.3,1.3,0,0,1,.236.817,1.469,1.469,0,0,1-.221.774,1.592,1.592,0,0,1-.643.585A2.119,2.119,0,0,1,96.617-2.943Zm7.518-3.832a1.625,1.625,0,0,1-.194.774,1.451,1.451,0,0,1-.619.592,2.3,2.3,0,0,1-1.092.228h-.976V-3h-.883V-8.378h1.858a2.346,2.346,0,0,1,1.049.213,1.48,1.48,0,0,1,.643.577A1.58,1.58,0,0,1,104.135-6.776Zm-1.9.875a1.076,1.076,0,0,0,.751-.228.835.835,0,0,0,.248-.646q0-.883-1-.883h-.976V-5.9Zm6.054,2.958A2.787,2.787,0,0,1,106.9-3.3a2.61,2.61,0,0,1-1-.983,2.769,2.769,0,0,1-.368-1.421,2.748,2.748,0,0,1,.368-1.417,2.618,2.618,0,0,1,1-.979,2.787,2.787,0,0,1,1.382-.352,2.8,2.8,0,0,1,1.39.352,2.591,2.591,0,0,1,.995.979,2.771,2.771,0,0,1,.364,1.417,2.792,2.792,0,0,1-.364,1.421,2.583,2.583,0,0,1-.995.983A2.8,2.8,0,0,1,108.284-2.943Zm0-.766a1.855,1.855,0,0,0,.952-.244,1.691,1.691,0,0,0,.654-.7,2.237,2.237,0,0,0,.236-1.049,2.214,2.214,0,0,0-.236-1.045,1.67,1.67,0,0,0-.654-.689,1.878,1.878,0,0,0-.952-.24,1.878,1.878,0,0,0-.952.24,1.67,1.67,0,0,0-.654.689,2.214,2.214,0,0,0-.236,1.045,2.237,2.237,0,0,0,.236,1.049,1.691,1.691,0,0,0,.654.7A1.855,1.855,0,0,0,108.284-3.71ZM117.172-3h-.883l-2.656-4.018V-3h-.883V-8.386h.883l2.656,4.01v-4.01h.883Zm3.786.054a2.41,2.41,0,0,1-.976-.19,1.6,1.6,0,0,1-.681-.538,1.367,1.367,0,0,1-.248-.813H120a.853.853,0,0,0,.275.573.974.974,0,0,0,.685.225,1.055,1.055,0,0,0,.712-.221.717.717,0,0,0,.255-.569.621.621,0,0,0-.159-.441,1.062,1.062,0,0,0-.395-.263,5.955,5.955,0,0,0-.654-.2,6.13,6.13,0,0,1-.856-.283,1.414,1.414,0,0,1-.561-.445,1.287,1.287,0,0,1-.232-.805,1.431,1.431,0,0,1,.232-.813,1.484,1.484,0,0,1,.65-.534,2.363,2.363,0,0,1,.968-.186,2.017,2.017,0,0,1,1.281.391,1.442,1.442,0,0,1,.554,1.072h-.976a.707.707,0,0,0-.279-.5,1.03,1.03,0,0,0-.674-.209.956.956,0,0,0-.619.194.674.674,0,0,0-.24.557.566.566,0,0,0,.151.406,1.066,1.066,0,0,0,.383.252,5.95,5.95,0,0,0,.635.2,6.628,6.628,0,0,1,.871.294,1.45,1.45,0,0,1,.573.453,1.3,1.3,0,0,1,.236.817,1.469,1.469,0,0,1-.221.774,1.592,1.592,0,0,1-.643.585A2.119,2.119,0,0,1,120.958-2.943ZM125.6-8.378V-3h-.883V-8.378Zm4.893,2.617a1.19,1.19,0,0,1,.736.457,1.343,1.343,0,0,1,.3.859,1.332,1.332,0,0,1-.213.739,1.443,1.443,0,0,1-.616.519,2.176,2.176,0,0,1-.937.19h-2.152V-8.378h2.052a2.2,2.2,0,0,1,.945.186,1.386,1.386,0,0,1,.6.5,1.27,1.27,0,0,1,.2.7,1.2,1.2,0,0,1-.248.774A1.442,1.442,0,0,1,130.489-5.761Zm-2-.356h1.092a1.049,1.049,0,0,0,.677-.2.69.69,0,0,0,.244-.569.7.7,0,0,0-.244-.569,1.021,1.021,0,0,0-.677-.205h-1.092Zm1.192,2.4a1.055,1.055,0,0,0,.7-.217.749.749,0,0,0,.256-.6.783.783,0,0,0-.271-.627,1.068,1.068,0,0,0-.72-.232h-1.161v1.68Zm4.537-4.661V-3h-.883V-8.378Zm2.9,4.669h1.819V-3h-2.7V-8.378h.883Zm4.289-4.669V-3h-.883V-8.378Zm5.489,0v.72h-1.432V-3h-.883V-7.658h-1.44v-.72Zm5.729,0-1.781,3.43V-3h-.883V-4.949l-1.788-3.43h.983l1.246,2.64,1.246-2.64Z" transform="translate(-20040 -19045.518)" fill="#2a2a2c"/>
    <g id="Group_5001" data-name="Group 5001" transform="translate(-20038.713 -19084)">
      <path id="Path_3115" data-name="Path 3115" d="M19.428-28.072a6.77,6.77,0,0,1-.806,3.226,6.044,6.044,0,0,1-2.581,2.468,9.579,9.579,0,0,1-4.549.952H7.428v9.1H3.75V-34.75h7.742a9.775,9.775,0,0,1,4.371.887,6.167,6.167,0,0,1,2.677,2.4A6.582,6.582,0,0,1,19.428-28.072Zm-7.936,3.645a4.483,4.483,0,0,0,3.129-.952,3.481,3.481,0,0,0,1.032-2.694q0-3.678-4.161-3.678H7.428v7.323Zm27.743,2.774a11.5,11.5,0,0,1-.129,1.807H25.525a4.932,4.932,0,0,0,1.581,3.419,4.99,4.99,0,0,0,3.484,1.29,4.3,4.3,0,0,0,4.194-2.484h3.968A8.007,8.007,0,0,1,35.832-13.6a8.566,8.566,0,0,1-5.242,1.565,9.078,9.078,0,0,1-4.565-1.145,8.148,8.148,0,0,1-3.161-3.226,9.841,9.841,0,0,1-1.145-4.823,10.072,10.072,0,0,1,1.113-4.823,7.827,7.827,0,0,1,3.129-3.21A9.312,9.312,0,0,1,30.589-30.4a9.053,9.053,0,0,1,4.484,1.1,7.75,7.75,0,0,1,3.065,3.081A9.278,9.278,0,0,1,39.235-21.653ZM35.4-22.814a4.185,4.185,0,0,0-1.452-3.258A5.19,5.19,0,0,0,30.428-27.3a4.723,4.723,0,0,0-3.258,1.21,5.055,5.055,0,0,0-1.613,3.274ZM49.3-12.04a8.955,8.955,0,0,1-3.758-.758,6.6,6.6,0,0,1-2.629-2.065,5.146,5.146,0,0,1-1.032-2.919h3.807a2.6,2.6,0,0,0,1.081,1.887,3.924,3.924,0,0,0,2.468.758,4.156,4.156,0,0,0,2.4-.6,1.8,1.8,0,0,0,.855-1.532,1.573,1.573,0,0,0-.952-1.484,17.838,17.838,0,0,0-3.016-1.065,29.111,29.111,0,0,1-3.258-1.065,5.712,5.712,0,0,1-2.177-1.581,4.143,4.143,0,0,1-.919-2.807,4.377,4.377,0,0,1,.839-2.6,5.585,5.585,0,0,1,2.4-1.855,8.979,8.979,0,0,1,3.6-.677A7.427,7.427,0,0,1,53.9-28.863a5.5,5.5,0,0,1,1.984,4.178H52.2a2.619,2.619,0,0,0-.968-1.9,3.619,3.619,0,0,0-2.355-.71,3.822,3.822,0,0,0-2.226.548A1.7,1.7,0,0,0,45.88-25.3,1.571,1.571,0,0,0,46.4-24.1a3.677,3.677,0,0,0,1.258.758q.742.274,2.194.694A23.863,23.863,0,0,1,53.026-21.6a5.915,5.915,0,0,1,2.145,1.565,4.139,4.139,0,0,1,.936,2.742,4.6,4.6,0,0,1-.839,2.71A5.561,5.561,0,0,1,52.9-12.717,8.835,8.835,0,0,1,49.3-12.04ZM58.848-21.3a9.837,9.837,0,0,1,1.113-4.742,8.158,8.158,0,0,1,3.032-3.21A8.124,8.124,0,0,1,67.236-30.4a7.759,7.759,0,0,1,3.661.823,7.43,7.43,0,0,1,2.5,2.048V-30.1h3.71V-12.33H73.4v-2.645a7.3,7.3,0,0,1-2.548,2.1,7.854,7.854,0,0,1-3.678.839,7.816,7.816,0,0,1-4.194-1.177,8.35,8.35,0,0,1-3.016-3.29A10.122,10.122,0,0,1,58.848-21.3Zm14.549.065a6.436,6.436,0,0,0-.758-3.194,5.321,5.321,0,0,0-1.984-2.065,5.19,5.19,0,0,0-2.645-.71,5.283,5.283,0,0,0-2.645.694,5.231,5.231,0,0,0-1.984,2.032,6.345,6.345,0,0,0-.758,3.178,6.621,6.621,0,0,0,.758,3.226,5.348,5.348,0,0,0,2,2.113,5.13,5.13,0,0,0,2.629.726,5.19,5.19,0,0,0,2.645-.71,5.3,5.3,0,0,0,1.984-2.081A6.528,6.528,0,0,0,73.4-21.233Z" transform="translate(-3.75 34.75)" fill="#ee4538"/>
      <path id="Path_3114" data-name="Path 3114" d="M21.544-35.1,13.705-19.938v7.484H8.189v-7.484L.35-35.1H6.608L11-25.616,15.35-35.1ZM40.738-21.745a14.081,14.081,0,0,1-.1,1.613H28.157a3.751,3.751,0,0,0,1.081,2.565,3.3,3.3,0,0,0,2.339.887,2.9,2.9,0,0,0,2.871-1.742h5.871a8.057,8.057,0,0,1-1.629,3.194A8.156,8.156,0,0,1,35.738-13a9.481,9.481,0,0,1-3.968.806,9.655,9.655,0,0,1-4.71-1.129,8.031,8.031,0,0,1-3.226-3.226,9.959,9.959,0,0,1-1.161-4.9,10.073,10.073,0,0,1,1.145-4.9,7.927,7.927,0,0,1,3.21-3.226,9.723,9.723,0,0,1,4.742-1.129,9.626,9.626,0,0,1,4.645,1.1,7.875,7.875,0,0,1,3.178,3.129A9.5,9.5,0,0,1,40.738-21.745ZM35.093-23.2a2.836,2.836,0,0,0-.968-2.258,3.562,3.562,0,0,0-2.419-.839,3.494,3.494,0,0,0-2.339.806,3.582,3.582,0,0,0-1.177,2.29Zm18.581,6.065v4.678H50.868a6.87,6.87,0,0,1-4.678-1.468q-1.677-1.468-1.677-4.79v-7.161H42.319v-4.581h2.194v-4.387h5.516v4.387h3.613v4.581H50.029v7.226a1.512,1.512,0,0,0,.387,1.161,1.89,1.89,0,0,0,1.29.355ZM74.513-30.455v18H69v-2.452a6.054,6.054,0,0,1-2.274,1.919,6.94,6.94,0,0,1-3.178.726A7.117,7.117,0,0,1,59.9-13.18a6.2,6.2,0,0,1-2.452-2.661,9.057,9.057,0,0,1-.871-4.1V-30.455h5.484v9.774A3.95,3.95,0,0,0,63-17.874a3.28,3.28,0,0,0,2.516,1,3.321,3.321,0,0,0,2.548-1A3.95,3.95,0,0,0,69-20.68v-9.774Z" transform="translate(77.91 35.1)" fill="#0067a3"/>
    </g>
  </g>
</svg>
