<svg xmlns="http://www.w3.org/2000/svg" xmlns:xlink="http://www.w3.org/1999/xlink" width="62" height="62" viewBox="0 0 62 62"><defs><style>.a{fill:#0067a3;}.b{fill:#fff;}.c{filter:url(#a);}</style><filter id="a" x="0" y="0" width="62" height="62" filterUnits="userSpaceOnUse"><feOffset dy="3" input="SourceAlpha"/><feGaussianBlur stdDeviation="3" result="b"/><feFlood flood-opacity="0.161"/><feComposite operator="in" in2="b"/><feComposite in="SourceGraphic"/></filter></defs><g transform="translate(9 6)"><g class="c" transform="matrix(1, 0, 0, 1, -9, -6)"><rect class="a" width="44" height="44" transform="translate(9 6)"/></g><path class="b" d="M20.813,3H5.227A2.233,2.233,0,0,0,3,5.227V20.813a2.233,2.233,0,0,0,2.227,2.227H20.813a2.233,2.233,0,0,0,2.227-2.227V5.227A2.233,2.233,0,0,0,20.813,3ZM9.68,18.586H7.453V10.793H9.68Zm4.453,0H11.906V7.453h2.227Zm4.453,0H16.359V14.133h2.227Z" transform="translate(8.497 8.496)"/></g></svg>