<svg xmlns="http://www.w3.org/2000/svg" width="23.176" height="18.542" viewBox="0 0 23.176 18.542"><defs><style>.a{fill:#333;fill-rule:evenodd;}</style></defs><g transform="translate(0 0)"><path class="a" d="M11.289,7379.542a13.328,13.328,0,0,0,13.529-13.32c0-.2,0-.406-.014-.606a9.592,9.592,0,0,0,2.372-2.423,9.575,9.575,0,0,1-2.73.735,4.709,4.709,0,0,0,2.091-2.59,9.6,9.6,0,0,1-3.02,1.137,4.813,4.813,0,0,0-6.728-.2,4.64,4.64,0,0,0-1.376,4.473,13.579,13.579,0,0,1-9.8-4.891,4.641,4.641,0,0,0,1.473,6.248,4.743,4.743,0,0,1-2.159-.585v.061a4.7,4.7,0,0,0,3.815,4.587,4.814,4.814,0,0,1-2.146.081,4.751,4.751,0,0,0,4.442,3.252A9.646,9.646,0,0,1,4,7377.438a13.614,13.614,0,0,0,7.289,2.1" transform="translate(-4 -7361)"/></g></svg>