<svg xmlns="http://www.w3.org/2000/svg" width="200.392" height="117.029" viewBox="0 0 200.392 117.029"><defs><style>.a{fill:#fff;}</style></defs><g transform="translate(-12 -4492.121)"><g transform="translate(12 4492.121)"><g transform="translate(0 0)"><path class="a" d="M250.127,95.57h-7.7v4.559h2.738v3.1H238.79v12.428h7.273v-4.623h-2.322v-3.181h6.386v-.242h0v-11.8h0Z" transform="translate(-51.446 -18.595)"/><path class="a" d="M162.481,23.22H131.114V19.878H197.5V8.4H138.45V4.567h27.5V0H132.676V12.476h59.054v3.334H125.34V27.288h37.141Z" transform="translate(-27.004)"/><path class="a" d="M126.254,43.666v-3.31h81.327V28.83H165.208V32.9h36.6V36.28H120.48V47.7h3.193v.032h96.9v3.286H146.708v11.55h39.243V58.5H152.482V55.095h73.866V43.666Z" transform="translate(-25.957 -5.61)"/><path class="a" d="M194.3,102.55v4.067H214.78v3.375H176.69v11.574h27.452v3.246H186.63v12.162h14.318v-4.623H192.4v-3.471h17.5V117.458h-5.766v.04H182.472V114.06h38.082V102.55H194.3Z" transform="translate(-38.067 -19.954)"/><path class="a" d="M201.62,65.67v4.067h23.921v3.31H175.69V84.469h2.118v.064h34.936v3.334H179.683V99.442h10.623V95.374h-4.849V91.943h33.061V80.458H181.464V77.123h49.851V65.67Z" transform="translate(-37.851 -12.778)"/><path class="a" d="M30.52,86.662,28.951,87.87A8.4,8.4,0,0,0,25.931,85.3a8.727,8.727,0,0,0-3.923-.878,8.5,8.5,0,0,0-4.323,1.144A8.232,8.232,0,0,0,14.6,88.659a8.732,8.732,0,0,0-1.1,4.365,8.318,8.318,0,0,0,8.622,8.529,8.543,8.543,0,0,0,6.857-3.294l1.569,1.2a9.8,9.8,0,0,1-3.64,2.948,11.171,11.171,0,0,1-4.872,1.039,10.013,10.013,0,0,1-8.073-3.5,10.74,10.74,0,0,1-2.487-7.136,10.072,10.072,0,0,1,3-7.4,10.242,10.242,0,0,1,7.532-3,10.823,10.823,0,0,1,4.935,1.112,9.6,9.6,0,0,1,3.6,3.117" transform="translate(-2.473 -16.034)"/><path class="a" d="M49.783,82.439a10,10,0,0,1,7.391,3.036,10.731,10.731,0,0,1,2.253,11.5,10.254,10.254,0,0,1-9.518,6.5,9.847,9.847,0,0,1-7.32-3.045A10.171,10.171,0,0,1,39.6,93.047,10.85,10.85,0,0,1,41,87.723a9.987,9.987,0,0,1,3.7-3.858,9.767,9.767,0,0,1,5.084-1.4m.086,1.949a8.305,8.305,0,0,0-7.132,4.277,8.857,8.857,0,0,0-1.091,4.382,8.55,8.55,0,0,0,2.389,6,8.189,8.189,0,0,0,10.038,1.351,7.953,7.953,0,0,0,3.013-3.093,8.865,8.865,0,0,0,1.083-4.357,8.667,8.667,0,0,0-1.083-4.317,8.221,8.221,0,0,0-3.052-3.109,8.075,8.075,0,0,0-4.174-1.16" transform="translate(-8.531 -16.04)"/><path class="a" d="M70.83,103.1V83.065h4.056a19.989,19.989,0,0,1,6.347.725,8.508,8.508,0,0,1,4.441,3.536,10.979,10.979,0,0,1,1.569,6.008,10.693,10.693,0,0,1-1.271,5.292,8.216,8.216,0,0,1-3.287,3.383,12.139,12.139,0,0,1-5.672,1.087ZM72.7,101.2h2.26a20.751,20.751,0,0,0,5.61-.515,6.506,6.506,0,0,0,3.46-2.65,8.314,8.314,0,0,0,1.263-4.672,8.747,8.747,0,0,0-1.365-4.953,6.892,6.892,0,0,0-3.813-2.819,22.549,22.549,0,0,0-6.033-.564H72.7Z" transform="translate(-15.26 -16.158)"/><path class="a" d="M96.61,83.07h11.18v1.957H98.564V91.31h9.148v1.957H98.564v7.869h9.148V103.1H96.61Z" transform="translate(-20.814 -16.163)"/><path class="a" d="M9.258,113.92h4.637l9.234,24.646H18.382L16.5,133.492H6.7l-1.954,5.074H0Zm2.354,6.532-3.217,8.465h6.418Z" transform="translate(0 -22.166)"/><path class="a" d="M34.07,113.92H45.987v4.575H38.6v4.47h7.383v4.51H38.6v11.091H34.07Z" transform="translate(-7.34 -22.166)"/><path class="a" d="M54.83,113.92h4.841a15.765,15.765,0,0,1,5.672.725,5.933,5.933,0,0,1,2.715,2.416,7.588,7.588,0,0,1,1.02,4.027,7,7,0,0,1-1.13,4.027,6.869,6.869,0,0,1-3.421,2.465l5.688,10.962h-5l-5.4-10.471H59.4v10.471H54.83Zm4.574,9.665h1.428a5.47,5.47,0,0,0,3-.588,2.235,2.235,0,0,0,.785-1.949,2.462,2.462,0,0,0-.408-1.41,2.315,2.315,0,0,0-1.091-.854,8.263,8.263,0,0,0-2.511-.258H59.4Z" transform="translate(-11.813 -22.166)"/><rect class="a" width="4.535" height="24.646" transform="translate(61.776 91.754)"/><path class="a" d="M112.823,118.1l-3.193,3.125a9.792,9.792,0,0,0-7.343-3.536,7.919,7.919,0,0,0-5.8,2.412,8.355,8.355,0,0,0-2.35,5.956,8.942,8.942,0,0,0,1.043,4.373,7.553,7.553,0,0,0,2.95,3,8.453,8.453,0,0,0,4.244,1.087,8.546,8.546,0,0,0,3.633-.757,13.032,13.032,0,0,0,3.625-2.779l3.138,3.318a16.94,16.94,0,0,1-5.029,3.7,13.464,13.464,0,0,1-5.406,1.031,12.284,12.284,0,0,1-9.164-3.641,12.813,12.813,0,0,1-3.562-9.343,13.07,13.07,0,0,1,1.585-6.58,12.215,12.215,0,0,1,4.645-4.607,12.907,12.907,0,0,1,6.527-1.74,13.678,13.678,0,0,1,10.458,4.953" transform="translate(-19.304 -22.01)"/><path class="a" d="M131.1,113.92h4.629l9.242,24.646h-4.754l-1.875-5.074h-9.8l-1.954,5.074H121.83Zm2.354,6.532-3.225,8.465h6.426Z" transform="translate(-26.247 -22.166)"/><path class="a" d="M123.54,89.478c.063-.2.118-.37.149-.507a1.785,1.785,0,0,0,.047-.379,1.339,1.339,0,0,0-.22-.805.775.775,0,0,0-.643-.282c-.573,0-1.3.532-2.173,1.611a33.524,33.524,0,0,0-3.138,4.833h4.252l-.235.226h-4.166l-3.782,6.242a15.531,15.531,0,0,1-3.585,4.365,6.4,6.4,0,0,1-3.923,1.393,4.065,4.065,0,0,1-2.354-.588,1.916,1.916,0,0,1-.839-1.659,1.688,1.688,0,0,1,.534-1.265,1.825,1.825,0,0,1,1.334-.515,3.37,3.37,0,0,1,.408,0,2.456,2.456,0,0,1,.416.056v.137h-.275a1.34,1.34,0,0,0-1.028.443,1.578,1.578,0,0,0-.408,1.12,1.957,1.957,0,0,0,.643,1.506,2.4,2.4,0,0,0,1.679.6,4.655,4.655,0,0,0,3.138-1.474,26.4,26.4,0,0,0,3.836-5.211l3.138-5.147h-1.569l.18-.226h1.483l1.726-2.634a12.123,12.123,0,0,1,2.566-2.972,4.153,4.153,0,0,1,2.526-1.023,1.609,1.609,0,0,1,1.02.306.918.918,0,0,1,.392.805,1.054,1.054,0,0,1-.29.765,1.342,1.342,0,0,1-.785.37" transform="translate(-22.175 -16.99)"/><path class="a" d="M132.548,96.664l.118.081a4.574,4.574,0,0,1-1.1,1.031,2.131,2.131,0,0,1-1.13.322,1.426,1.426,0,0,1-.957-.306,1.675,1.675,0,0,1-.541-.9,5.86,5.86,0,0,1-.659,1.933,7.211,7.211,0,0,1-3.036,2.835,3.55,3.55,0,0,1-1.569.4,1.462,1.462,0,0,1-1.161-.451,2.126,2.126,0,0,1-.384-1.369,4,4,0,0,1,.785-2.175,8.643,8.643,0,0,1,2.118-2.15,5.62,5.62,0,0,1,1.287-.709,3.429,3.429,0,0,1,1.24-.266c.738,0,1.247.636,1.53,1.9a.157.157,0,0,0,0,.064,1.284,1.284,0,0,0,.479.757,1.364,1.364,0,0,0,.871.274,1.992,1.992,0,0,0,1.059-.3,4.206,4.206,0,0,0,1.051-.975m-4.543-.451a1.24,1.24,0,0,0-.212-.805.7.7,0,0,0-.581-.282,1.844,1.844,0,0,0-.973.354,4.969,4.969,0,0,0-1.075,1.055A11.229,11.229,0,0,0,123.69,98.8a4.528,4.528,0,0,0-.533,1.917,1.3,1.3,0,0,0,.243.805.778.778,0,0,0,.643.322,2.029,2.029,0,0,0,1.161-.515,6.562,6.562,0,0,0,1.295-1.41,9.573,9.573,0,0,0,1.1-2.014,4.89,4.89,0,0,0,.408-1.716" transform="translate(-26.311 -18.473)"/><path class="a" d="M139.133,95.09a6.686,6.686,0,0,0-.667,1.168,2.649,2.649,0,0,0-.235.958.7.7,0,0,0,.165.507.771.771,0,0,0,.533.161,2.31,2.31,0,0,0,1-.314,3.928,3.928,0,0,0,1.083-.805l.1.113a4.341,4.341,0,0,1-1.193.91,2.813,2.813,0,0,1-1.279.338,1.365,1.365,0,0,1-.973-.33,1.185,1.185,0,0,1-.345-.9,1.977,1.977,0,0,1,.071-.507,3.47,3.47,0,0,1,.212-.572,19.326,19.326,0,0,0-2.981,2.859,14.209,14.209,0,0,0-1.993,3.222l-1.349.081,3.993-6.6,1.255-.081-2.518,3.673.071.056a20.932,20.932,0,0,1,1.632-1.74c.6-.572,1.24-1.136,1.93-1.7h.039a.909.909,0,0,1,.565-.387Z" transform="translate(-28.283 -18.502)"/></g></g></g></svg>