<svg xmlns="http://www.w3.org/2000/svg" width="260.261" height="129.575" viewBox="0 0 260.261 129.575"><defs><style>.a{opacity:0.2;}.b{fill:#0067a3;}.c{fill:#dfdfdf;}.d,.e,.f,.g,.h{isolation:isolate;}.e,.f{fill:#333;font-size:12px;}.e{font-family:Roboto-Black, Roboto;font-weight:800;}.f{font-family:Roboto-Regular, Roboto;}.g,.h{fill:#666;font-size:7px;}.g{font-family:Roboto-Bold, Roboto;font-weight:700;}.h{font-family:OpenSans, Open Sans;}</style></defs><g class="a"><path class="b" d="M1020.608,121.726a64.787,64.787,0,1,1-41.3,114.707l16.275-19.672a39.255,39.255,0,1,0,25.022-69.5Z" transform="translate(-955.822 -121.726)"/><path class="c" d="M970.172,236.433a64.788,64.788,0,0,1,41.295-114.707v25.532a39.252,39.252,0,0,0-25.021,69.5Z" transform="translate(-946.68 -121.726)"/><g transform="translate(147.306 32.458)"><g class="d" transform="translate(23.002)"><text class="e" transform="translate(0 13)"><tspan x="0" y="0">61%</tspan></text></g><g class="d" transform="translate(55.955)"><text class="f" transform="translate(0 13)"><tspan x="0" y="0">Non-Youth</tspan></text></g><g class="d" transform="translate(23.002 20.144)"><text class="e" transform="translate(0 13)"><tspan x="0" y="0">39%</tspan></text></g><g class="d" transform="translate(55.955 20.144)"><text class="f" transform="translate(0 13)"><tspan x="0" y="0">Youth</tspan></text></g><ellipse class="b" cx="5.039" cy="5.036" rx="5.039" ry="5.036" transform="translate(0 4.325)"/><ellipse class="c" cx="5.039" cy="5.036" rx="5.039" ry="5.036" transform="translate(0 24.469)"/><g class="d" transform="translate(23.395 58.437)"><text class="g" transform="translate(0 7)"><tspan x="0" y="0">60%</tspan></text></g><g transform="translate(45.876 58.437)"><text class="h" transform="translate(0 7)"><tspan x="0" y="0">Non-Youth</tspan></text></g><g class="d" transform="translate(23.395 73.021)"><text class="g" transform="translate(0 7)"><tspan x="0" y="0">40%</tspan></text></g><g class="d" transform="translate(45.876 73.021)"><text class="h" transform="translate(0 7)"><tspan x="0" y="0">Youth</tspan></text></g><g class="d" transform="translate(23.395 43.854)"><text class="h" transform="translate(0 7)"><tspan x="0" y="0">National Average</tspan></text></g></g></g></svg>