<svg xmlns="http://www.w3.org/2000/svg" width="461.193" height="230.891" viewBox="0 0 461.193 230.891"><defs><style>.a{opacity:0.2;}.b{fill:#0067a3;}.c{fill:#dfdfdf;}.d,.e,.f,.g,.h{isolation:isolate;}.e,.f{fill:#333;font-size:21px;}.e{font-family:Roboto-Black, Roboto;font-weight:800;}.f{font-family:Roboto-Regular, Roboto;}.g,.h{fill:#666;}.g{font-size:12px;font-family:Roboto-Bold, Roboto;font-weight:700;}.h{font-size:11px;font-family:OpenSans, Open Sans;}</style></defs><g class="a" transform="translate(0)"><path class="b" d="M1052.9,121.726a115.445,115.445,0,1,1-73.585,204.4l29-35.054A69.949,69.949,0,1,0,1052.9,167.22Z" transform="translate(-937.454 -121.726)"/><path class="c" d="M988.541,326.125a115.447,115.447,0,0,1,73.583-204.4v45.5a69.943,69.943,0,0,0-44.585,123.836Z" transform="translate(-946.68 -121.726)"/><g transform="translate(262.486 57.838)"><g class="d" transform="translate(40.988)"><text class="e" transform="translate(0 22)"><tspan x="0" y="0">61%</tspan></text></g><g class="d" transform="translate(99.706)"><text class="f" transform="translate(0 22)"><tspan x="0" y="0">Non-Youth</tspan></text></g><g class="d" transform="translate(40.988 35.895)"><text class="e" transform="translate(0 22)"><tspan x="0" y="0">39%</tspan></text></g><g class="d" transform="translate(99.706 35.895)"><text class="f" transform="translate(0 22)"><tspan x="0" y="0">Youth</tspan></text></g><ellipse class="b" cx="8.979" cy="8.974" rx="8.979" ry="8.974" transform="translate(0 7.707)"/><ellipse class="c" cx="8.979" cy="8.974" rx="8.979" ry="8.974" transform="translate(0 43.602)"/><g class="d" transform="translate(41.688 104.13)"><text class="g" transform="translate(0 13)"><tspan x="0" y="0">60%</tspan></text></g><g transform="translate(81.747 104.13)"><text class="h" transform="translate(0 12)"><tspan x="0" y="0">Non-Youth</tspan></text></g><g class="d" transform="translate(41.688 130.117)"><text class="g" transform="translate(0 13)"><tspan x="0" y="0">40%</tspan></text></g><g class="d" transform="translate(81.747 130.117)"><text class="h" transform="translate(0 12)"><tspan x="0" y="0">Youth</tspan></text></g><g class="d" transform="translate(41.688 78.144)"><text class="h" transform="translate(0 12)"><tspan x="0" y="0">National Average</tspan></text></g></g></g></svg>